<svg enable-background="new 0 0 1024 1024" height="1024" image-rendering="optimizeSpeed" viewBox="0 0 1024 1024" width="1024" xmlns="http://www.w3.org/2000/svg" xmlns:xlink="http://www.w3.org/1999/xlink"><mask id="a"><path d="m929.8 289.6c-2.35-4.35-4.95-9-7.65-13.6-20.3-34.5-45.8-67.2-76.35-97.75-72.6-72.6-157.15-116.65-253.65-132.05-16.25-2.6-32.8-4.4-50.05-5.35-9.7-.55-19.85-.85-30.1-.85-9.35 0-18.6.25-27.9.75-118.35 6.1-220.3 51.95-305.85 137.5-20.5 20.5-38.75 41.95-54.7 64.4-15.35 21.55-28.55 44-39.6 67.2-17.65 36.9-30 76-36.9 116.8-3.35 19.4-5.45 38.9-6.4 58.8v-.025q-.65 13.158-.65 26.575c0 5.15.1 10.25.2 15.2.3 9.9.85 19.65 1.6 28.9 24.4 9.3 52.65 13.9 85.25 13.9 36.2 0 67.1-5.65 92.65-17 24.25-10.75 37.05-23.6 38.3-38.55 1.25 14.95 14 27.8 38.25 38.55 25.6 11.35 56.5 17 92.7 17s67.1-5.65 92.65-17c24.2-10.7 36.95-23.45 38.3-38.55 1.45 15.2 14.2 27.9 38.25 38.55 25.6 11.35 56.5 17 92.7 17s67.1-5.65 92.65-17c24.25-10.75 37.05-23.6 38.3-38.55 1.25 14.95 14 27.8 38.25 38.55 25.6 11.35 56.5 17 92.7 17 9.95 0 19.5-.45 28.25-1.25 14.75-1.4 28.4-3.85 40.75-7.3.9-10.05 1.6-20.45 1.95-30.95.2-6.05.3-12.25.3-18.5 0-.65 0-1.35 0-2 0-.35 0-.65 0-1-.1-23.75-1.75-46.9-5.05-69.7-.75-5.45-1.65-10.9-2.65-16.5-1.8-10.2-4.05-20.55-6.6-30.8-1.1-4.35-2.35-9-3.65-13.6-1-3.4-2-6.85-3.15-10.5-1.6-5.15-3.4-10.5-5.3-15.85-5.05-14.25-10.85-28.25-17.45-42.15-1.85-3.8-3.75-7.65-5.7-11.5-1.45-2.85-2.95-5.7-4.65-8.8z" fill="#fff" image-rendering="optimizeSpeed"/></mask><path d="m969.6 351.25q-8.6-20.85-19.4-40.85c-4.05-7.55-8.35-15.05-12.9-22.4-19.55-31.7-43.4-61.65-71.55-89.8-92.15-92.15-203.45-138.25-333.8-138.25s-241.6 46.1-333.75 138.25-138.25 203.4-138.25 333.75 46.1 241.65 138.25 333.8 203.4 138.2 333.75 138.2 241.65-46.05 333.8-138.2c50.75-50.8 87.55-107.4 110.35-169.75 18.55-50.85 27.85-105.5 27.85-164.05 0-44.9-5.45-87.55-16.4-127.95-1.25-4.55-2.55-9.1-3.9-13.6-4.1-13.3-8.8-26.35-14.05-39.15z" fill-opacity=".098039"/><path d="m929.8 289.6c-2.35-4.35-4.95-9-7.65-13.6-20.3-34.5-45.8-67.2-76.35-97.75-72.6-72.6-157.15-116.65-253.65-132.05-16.25-2.6-32.8-4.4-50.05-5.35-9.7-.55-19.85-.85-30.1-.85-9.35 0-18.6.25-27.9.75-118.35 6.1-220.3 51.95-305.85 137.5-20.5 20.5-38.75 41.95-54.7 64.4-15.35 21.55-28.55 44-39.6 67.2-17.65 36.9-30 76-36.9 116.8 19.7 5.05 41.35 7.55 65.3 7.55 36.2 0 67.1-5.65 92.65-17 24.25-10.75 37.05-23.6 38.3-38.55 1.25 14.95 14 27.8 38.25 38.55 25.6 11.35 56.5 17 92.7 17s67.1-5.65 92.65-17c24.2-10.7 36.95-23.45 38.3-38.55 1.45 15.2 14.2 27.9 38.25 38.55 25.6 11.35 56.5 17 92.7 17s67.1-5.65 92.65-17c24.25-10.75 37.05-23.6 38.3-38.55 1.25 14.95 14 27.8 38.25 38.55 25.6 11.35 56.5 17 92.7 17 9.95 0 19.5-.45 28.25-1.25 18.4-1.75 35-5.15 50-10.15-1.8-10.2-4.05-20.55-6.6-30.8-1.1-4.35-2.35-9-3.65-13.6-1-3.4-2-6.85-3.15-10.5-1.6-5.15-3.4-10.5-5.3-15.85-5.05-14.25-10.85-28.25-17.45-42.15-1.85-3.8-3.75-7.65-5.7-11.5-1.45-2.85-2.95-5.7-4.65-8.8z" fill="#92c8e0"/><path d="m926.3 432.95c-8.75.8-18.3 1.25-28.25 1.25-36.2 0-67.1-5.65-92.7-17-24.25-10.75-37-23.6-38.25-38.55-1.25 14.95-14.05 27.8-38.3 38.55-25.55 11.35-56.45 17-92.65 17s-67.1-5.65-92.7-17c-24.05-10.65-36.8-23.35-38.25-38.55-1.35 15.1-14.1 27.85-38.3 38.55-25.55 11.35-56.45 17-92.65 17s-67.1-5.65-92.7-17c-24.25-10.75-37-23.6-38.25-38.55-1.25 14.95-14.05 27.8-38.3 38.55-25.55 11.35-56.45 17-92.65 17-23.95 0-45.6-2.5-65.3-7.55-3.35 19.4-5.45 38.9-6.4 58.8v-.025q-.65 13.158-.65 26.575c0 5.15.1 10.25.2 15.2.3 9.9.85 19.65 1.6 28.9 24.4 9.3 52.65 13.9 85.25 13.9 36.2 0 67.1-5.65 92.65-17 24.25-10.75 37.05-23.6 38.3-38.55 1.25 14.95 14 27.8 38.25 38.55 25.6 11.35 56.5 17 92.7 17s67.1-5.65 92.65-17c24.2-10.7 36.95-23.45 38.3-38.55 1.45 15.2 14.2 27.9 38.25 38.55 25.6 11.35 56.5 17 92.7 17s67.1-5.65 92.65-17c24.25-10.75 37.05-23.6 38.3-38.55 1.25 14.95 14 27.8 38.25 38.55 25.6 11.35 56.5 17 92.7 17 9.95 0 19.5-.45 28.25-1.25 14.75-1.4 28.4-3.85 40.75-7.3.9-10.05 1.6-20.45 1.95-30.95.2-6.05.3-12.25.3-18.5 0-.65 0-1.35 0-2 0-.35 0-.65 0-1-.1-23.75-1.75-46.9-5.05-69.7-.75-5.45-1.65-10.9-2.65-16.5-15 5-31.6 8.4-50 10.15z" fill="#5ba0d8"/><path d="m941 568.75c-8.75.8-18.3 1.25-28.25 1.25-36.2 0-67.1-5.65-92.7-17-24.25-10.75-37-23.6-38.25-38.55-1.25 14.95-14.05 27.8-38.3 38.55-25.55 11.35-56.45 17-92.65 17s-67.1-5.65-92.7-17c-24.05-10.65-36.8-23.35-38.25-38.55-1.35 15.1-14.1 27.85-38.3 38.55-25.55 11.35-56.45 17-92.65 17s-67.1-5.65-92.7-17c-24.25-10.75-37-23.6-38.25-38.55-1.25 14.95-14.05 27.8-38.3 38.55-25.55 11.35-56.45 17-92.65 17-32.6 0-60.85-4.6-85.25-13.9 1 11.5 2.3 22.45 3.95 33.2 6.1 39.45 16.9 76.9 32.25 112 1.35 3.1 2.75 6.15 3.95 8.8 23.2 49.55 55.15 94.55 96.3 135.7 56.7 56.65 120.55 95.9 191.1 117.55 36.75 11.25 74.8 17.85 114.75 19.95h.4c8.5.45 16.6.7 24.5.7h3c10.3 0 20.5-.3 30.1-.8 2.5-.15 4.75-.3 6.95-.45 20.2-1.45 39.9-4.05 58.7-7.7 7.95-1.55 15.8-3.3 23.4-5.15 80.8-20.3 152.15-61.6 214.65-124.1 38-38 68.2-79.25 90.5-123.8 6.25-12.35 11.85-25.05 16.85-38 4.25-10.95 8.05-22.1 11.5-33.6 6.1-20.7 10.85-42.15 14.1-64.3.85-5.7 1.6-11.45 2.25-17.35.25-2.4.5-4.8.75-7.3-12.35 3.45-26 5.9-40.75 7.3z" fill="#416f9c"/><g mask="url(#a)"><path d="m652.4 246c-1.05-1.95-2.4-3.75-4.05-5.4-4.4-4.4-9.7-6.6-15.9-6.6-.15 0-.35 0-.5 0-4.75.1-8.9 1.5-12.55 4.2-1 .7-1.95 1.5-2.85 2.4s-1.7 1.85-2.45 2.85c-2.75 3.75-3.25 3.75-.5 0l-260.55 260.5c0 .05 0 .05-.05.05-21.55 25.35-43.3 44.3-65.3 56.9-3.7 2.1-6.45 5.3-8.2 9.6-1.8 4.25-2.2 8.75-1.25 13.35q1.4 6.9 6.25 11.35c3.2 2.95 6.9 4.4 11 4.4h359.45v-343.8c-.1-3.6-.95-6.85-2.55-9.8z" fill="#25405a"/></g></svg>