<svg version="1.1" id="Layer_1" xmlns="http://www.w3.org/2000/svg" xmlns:xlink="http://www.w3.org/1999/xlink" x="0px" y="0px"
	 width="100%" viewBox="0 0 96 96" enable-background="new 0 0 96 96" xml:space="preserve">
<path fill="#000000" opacity="1.000000" stroke="none" 
	d="
M65.000000,97.000000 
	C43.333336,97.000000 22.166674,97.000000 1.000009,97.000000 
	C1.000006,65.000008 1.000006,33.000019 1.000003,1.000021 
	C32.999985,1.000014 64.999969,1.000014 96.999969,1.000007 
	C96.999977,32.999981 96.999977,64.999962 96.999985,96.999969 
	C86.500000,97.000000 76.000000,97.000000 65.000000,97.000000 
M18.021429,38.906223 
	C18.069796,42.602551 18.118162,46.298878 18.021992,50.888226 
	C18.403120,54.590252 18.784248,58.292274 19.229771,62.684879 
	C23.805746,67.494453 28.381720,72.304031 33.231277,77.730118 
	C35.612953,79.734764 37.872593,81.912956 40.409542,83.696777 
	C43.118660,85.601669 46.089569,87.134247 49.665554,88.914528 
	C55.816010,83.956848 61.966465,78.999161 68.711823,73.739532 
	C72.178192,69.171959 75.644562,64.604385 79.769211,59.494358 
	C79.789810,54.661079 79.810410,49.827801 79.955833,44.066669 
	C79.914917,38.373390 79.874008,32.680115 79.956009,26.069046 
	C79.969795,23.258499 79.834274,20.436880 80.041588,17.640682 
	C80.229179,15.110439 79.326912,13.690746 76.869324,13.020591 
	C67.723457,10.526626 58.572426,8.141587 48.037052,9.019753 
	C38.282715,8.502472 28.950829,10.407718 19.051504,14.034623 
	C18.756300,18.020845 18.461094,22.007069 18.020601,26.905781 
	C18.069628,30.601950 18.118656,34.298119 18.021429,38.906223 
z"/>
<path fill="#0475CD" opacity="1.000000" stroke="none" 
	d="
M48.944870,9.152885 
	C58.572426,8.141587 67.723457,10.526626 76.869324,13.020591 
	C79.326912,13.690746 80.229179,15.110439 80.041588,17.640682 
	C79.834274,20.436880 79.969795,23.258499 79.520935,26.537931 
	C77.385185,27.337292 75.684509,27.667767 73.881500,27.564194 
	C73.779175,24.866867 73.779175,22.603588 73.779175,20.275232 
	C67.777596,19.256887 62.888409,19.142544 58.802460,23.958475 
	C55.966087,27.301582 52.294704,29.936249 48.987133,32.426582 
	C48.945084,26.304565 48.912292,20.643402 48.911510,14.566839 
	C48.943970,12.485253 48.944420,10.819070 48.944870,9.152885 
z"/>
<path fill="#0B84DF" opacity="1.000000" stroke="none" 
	d="
M32.957695,77.113602 
	C28.381720,72.304031 23.805746,67.494453 19.632591,62.340778 
	C21.779930,61.965912 23.524448,61.935150 25.520277,62.118767 
	C28.105011,65.311340 30.438433,68.289543 32.771854,71.267746 
	C33.118565,71.069756 33.465279,70.871773 33.811993,70.673790 
	C33.926979,68.118942 34.041965,65.564095 34.612869,63.006737 
	C39.681499,62.996456 44.294216,62.988686 48.933678,63.439678 
	C49.005569,67.271660 49.050720,70.644882 49.062607,74.346115 
	C48.986107,75.111565 48.942863,75.549019 48.442505,75.990082 
	C42.976162,76.366989 37.966927,76.740295 32.957695,77.113602 
z"/>
<path fill="#269EEF" opacity="1.000000" stroke="none" 
	d="
M48.879501,14.982240 
	C48.912292,20.643402 48.945084,26.304565 48.646915,32.467850 
	C44.874897,29.837086 41.166161,26.946333 38.059052,23.511372 
	C33.973972,18.995239 29.287437,18.993860 24.053934,20.260176 
	C23.899286,22.366215 23.765556,24.187363 23.241943,26.009703 
	C21.290003,26.005028 19.727945,25.999159 18.165888,25.993292 
	C18.461094,22.007069 18.756300,18.020845 19.831970,14.145549 
	C29.962801,17.302294 39.419727,16.197660 48.879501,14.982240 
z"/>
<path fill="#0A5CA7" opacity="1.000000" stroke="none" 
	d="
M48.899620,75.986465 
	C48.942863,75.549019 48.986107,75.111565 49.514622,74.340927 
	C51.783901,74.005028 53.568447,74.029289 55.351799,73.993713 
	C58.534763,73.930214 62.003899,74.671585 64.237015,71.065353 
	C64.660217,71.047234 64.828201,71.019493 65.075096,71.320236 
	C66.141640,72.446304 67.129280,73.243889 68.116920,74.041481 
	C61.966465,78.999161 55.816010,83.956848 49.311855,88.419785 
	C48.938644,83.945511 48.919132,79.965988 48.899620,75.986465 
z"/>
<path fill="#2CA3F1" opacity="1.000000" stroke="none" 
	d="
M48.911514,14.566839 
	C39.419727,16.197660 29.962801,17.302294 20.256367,14.091421 
	C28.950829,10.407718 38.282715,8.502472 48.490959,9.086319 
	C48.944420,10.819070 48.943970,12.485253 48.911514,14.566839 
z"/>
<path fill="#047EDC" opacity="1.000000" stroke="none" 
	d="
M48.442509,75.990082 
	C48.919132,79.965988 48.938644,83.945511 48.952179,88.377190 
	C46.089569,87.134247 43.118660,85.601669 40.409542,83.696777 
	C37.872593,81.912956 35.612953,79.734764 33.094486,77.421860 
	C37.966927,76.740295 42.976162,76.366989 48.442509,75.990082 
z"/>
<path fill="#046CC1" opacity="1.000000" stroke="none" 
	d="
M73.983833,27.998241 
	C75.684509,27.667767 77.385185,27.337292 79.459473,26.996826 
	C79.874008,32.680115 79.914917,38.373390 79.528587,44.615044 
	C77.367432,45.441475 75.633530,45.719532 73.789101,45.541161 
	C73.780334,39.389236 73.882080,33.693737 73.983833,27.998241 
z"/>
<path fill="#0862AF" opacity="1.000000" stroke="none" 
	d="
M68.414368,73.890503 
	C67.129280,73.243889 66.141640,72.446304 65.198486,71.007530 
	C67.783806,66.895615 70.324646,63.424873 73.311333,59.963234 
	C75.541763,59.993828 77.326347,60.015316 79.110931,60.036808 
	C75.644562,64.604385 72.178192,69.171959 68.414368,73.890503 
z"/>
<path fill="#0A68B8" opacity="1.000000" stroke="none" 
	d="
M79.440071,59.765583 
	C77.326347,60.015316 75.541763,59.993828 73.331085,59.533012 
	C73.236542,54.728325 73.568077,50.362961 73.899612,45.997593 
	C75.633530,45.719532 77.367432,45.441475 79.466179,45.078972 
	C79.810410,49.827801 79.789810,54.661079 79.440071,59.765583 
z"/>
<path fill="#128BE4" opacity="1.000000" stroke="none" 
	d="
M25.268965,61.904388 
	C23.524448,61.935150 21.779930,61.965912 19.600395,61.995491 
	C18.784248,58.292274 18.403120,54.590252 18.490746,50.442741 
	C20.545338,50.000809 22.131176,50.004356 23.800034,50.446274 
	C24.345022,54.557888 24.806993,58.231140 25.268965,61.904388 
z"/>
<path fill="#1791E8" opacity="1.000000" stroke="none" 
	d="
M23.717014,50.007904 
	C22.131176,50.004356 20.545338,50.000809 18.563015,49.996231 
	C18.118162,46.298878 18.069796,42.602551 18.486717,38.451393 
	C20.519966,38.001053 22.087927,38.005547 23.733185,38.464600 
	C23.779325,42.615410 23.748171,46.311657 23.717014,50.007904 
z"/>
<path fill="#1E98EC" opacity="1.000000" stroke="none" 
	d="
M23.655890,38.010040 
	C22.087927,38.005547 20.519966,38.001053 18.559843,37.995422 
	C18.118656,34.298119 18.069628,30.601950 18.093245,26.449535 
	C19.727945,25.999159 21.290003,26.005028 23.321293,26.464264 
	C23.745647,30.615101 23.700769,34.312569 23.655890,38.010040 
z"/>
<path fill="#FBFCFE" opacity="1.000000" stroke="none" 
	d="
M23.733185,38.464600 
	C23.700769,34.312569 23.745647,30.615101 23.711178,26.463070 
	C23.765556,24.187363 23.899286,22.366215 24.053934,20.260176 
	C29.287437,18.993860 33.973972,18.995239 38.059052,23.511372 
	C41.166161,26.946333 44.874897,29.837086 48.656174,32.928703 
	C52.294704,29.936249 55.966087,27.301582 58.802460,23.958475 
	C62.888409,19.142544 67.777596,19.256887 73.779175,20.275232 
	C73.779175,22.603588 73.779175,24.866867 73.881500,27.564194 
	C73.882080,33.693737 73.780334,39.389236 73.789093,45.541161 
	C73.568077,50.362961 73.236542,54.728325 72.885239,59.523914 
	C70.324646,63.424873 67.783806,66.895615 65.119583,70.679047 
	C64.828201,71.019493 64.660217,71.047234 64.195938,70.596420 
	C63.831177,65.087387 63.762699,60.056900 63.783371,54.563709 
	C63.872517,48.116661 63.872517,42.132320 63.872517,35.717236 
	C52.903606,42.533501 52.479996,43.346165 53.232086,55.415257 
	C53.809719,59.219776 51.615021,59.703617 48.674492,59.646755 
	C46.942093,59.397114 45.577343,59.298557 44.149025,59.195408 
	C44.023220,56.485664 43.919273,54.246788 43.886375,51.577126 
	C45.660564,43.133358 39.625980,40.057446 34.157669,35.553524 
	C34.157669,41.247303 34.157669,46.127293 34.090164,51.463425 
	C34.067425,55.616123 34.112186,59.312683 34.156952,63.009243 
	C34.041965,65.564095 33.926979,68.118942 33.811993,70.673790 
	C33.465279,70.871773 33.118565,71.069756 32.771854,71.267746 
	C30.438433,68.289543 28.105011,65.311340 25.520277,62.118767 
	C24.806993,58.231140 24.345022,54.557888 23.800032,50.446274 
	C23.748171,46.311657 23.779325,42.615410 23.733185,38.464600 
z"/>
<path fill="#0862AF" opacity="1.000000" stroke="none" 
	d="
M49.042145,59.797844 
	C51.615021,59.703617 53.809719,59.219776 53.664284,55.412399 
	C57.345318,55.023262 60.519772,55.024837 63.694221,55.026413 
	C63.762699,60.056900 63.831177,65.087387 63.940731,70.586792 
	C62.003899,74.671585 58.534763,73.930214 55.351799,73.993713 
	C53.568447,74.029289 51.783901,74.005028 49.547882,74.012917 
	C49.050720,70.644882 49.005569,67.271660 48.963207,63.042679 
	C48.991379,61.390560 49.016762,60.594200 49.042145,59.797844 
z"/>
<path fill="#148BE2" opacity="1.000000" stroke="none" 
	d="
M48.674492,59.646755 
	C49.016762,60.594200 48.991379,61.390560 48.936462,62.583916 
	C44.294216,62.988686 39.681499,62.996456 34.612869,63.006737 
	C34.112186,59.312683 34.067425,55.616123 34.511505,51.461655 
	C37.938679,51.338467 40.877003,51.673191 43.815331,52.007912 
	C43.919273,54.246788 44.023220,56.485664 44.149025,59.195408 
	C45.577343,59.298557 46.942093,59.397114 48.674492,59.646755 
z"/>
<path fill="#116EBC" opacity="1.000000" stroke="none" 
	d="
M63.783371,54.563705 
	C60.519772,55.024837 57.345318,55.023262 53.738667,55.024544 
	C52.479996,43.346165 52.903606,42.533501 63.872517,35.717236 
	C63.872517,42.132320 63.872517,48.116661 63.783371,54.563705 
z"/>
<path fill="#1891E7" opacity="1.000000" stroke="none" 
	d="
M43.886375,51.577126 
	C40.877003,51.673191 37.938679,51.338467 34.579010,51.005512 
	C34.157669,46.127293 34.157669,41.247303 34.157669,35.553524 
	C39.625980,40.057446 45.660564,43.133358 43.886375,51.577126 
z"/>
</svg>