<svg version="1.1" id="Layer_1" xmlns="http://www.w3.org/2000/svg" xmlns:xlink="http://www.w3.org/1999/xlink" x="0px" y="0px"
	 width="100%" viewBox="0 0 800 600" enable-background="new 0 0 800 600" xml:space="preserve">
<path fill="#000000" opacity="1.000000" stroke="none" 
	d="
M551.000000,601.000000 
	C367.333344,601.000000 184.166672,601.000000 1.000000,601.000000 
	C1.000000,401.000000 1.000000,201.000000 1.000000,1.000000 
	C267.666656,1.000000 534.333313,1.000000 801.000000,1.000000 
	C801.000000,201.000000 801.000000,401.000000 801.000000,601.000000 
	C717.833313,601.000000 634.666687,601.000000 551.000000,601.000000 
M508.292023,410.311462 
	C508.576355,414.705841 508.860657,419.100189 509.144958,423.494568 
	C509.987518,423.485626 510.830078,423.476685 511.672638,423.467743 
	C511.672638,418.628204 511.672638,413.788696 512.401245,408.920959 
	C520.257874,404.590515 523.770142,397.434235 526.114868,389.125824 
	C527.760376,383.294891 530.672180,377.829285 532.880859,372.147003 
	C535.011475,366.665253 538.233826,361.228455 538.740601,355.571625 
	C539.897827,342.655273 533.211426,332.217316 525.214905,322.851624 
	C517.947632,314.339935 509.127411,307.607361 499.458740,301.832794 
	C489.788452,296.057251 489.947144,294.412964 499.558075,289.235504 
	C511.210846,282.958099 517.490967,268.975891 509.603699,256.265808 
	C506.281738,250.912628 502.807739,245.646820 499.229889,240.460617 
	C484.434113,219.013611 464.717499,204.038254 439.320465,197.951111 
	C430.555511,195.850327 420.959961,197.166641 411.742249,197.016739 
	C402.252136,196.862396 398.016205,194.105042 395.203369,185.046921 
	C390.703186,170.555054 381.339539,160.635284 367.382477,155.240585 
	C339.060028,144.293396 309.292603,140.517273 279.261688,139.219376 
	C265.407928,138.620636 251.350098,139.546616 237.584000,141.324051 
	C229.431046,142.376740 221.371536,145.830292 213.879028,149.461044 
	C211.046844,150.833481 209.927963,155.741501 207.790741,159.446259 
	C207.594360,159.701935 207.348419,159.894241 206.374649,160.134491 
	C203.622269,163.856964 206.943787,165.327301 209.090469,166.999985 
	C214.401978,171.138748 214.740921,174.179581 209.695221,178.714783 
	C206.746323,181.365311 203.407425,183.596115 200.159790,185.896896 
	C195.067978,189.504135 191.656662,194.243927 190.117142,200.296051 
	C188.704819,205.848145 190.034180,208.810638 195.579651,210.638687 
	C202.626831,212.961792 209.816864,214.868454 216.990067,216.787415 
	C223.626328,218.562744 224.235245,220.072754 220.998108,226.101944 
	C218.896286,230.016571 216.924942,234.069702 215.517578,238.269363 
	C214.119614,242.440964 218.122574,251.770416 221.330109,252.862732 
	C228.221466,255.209579 235.337585,256.142242 242.407700,254.274002 
	C254.440948,251.094269 266.280426,247.167465 278.344330,244.120865 
	C295.205933,239.862671 312.166382,235.977036 329.151947,232.238220 
	C335.707886,230.795135 338.679321,234.102203 336.893250,240.461807 
	C334.179932,250.123199 332.583496,259.855408 332.956604,269.946228 
	C333.572571,286.606537 339.685150,300.942505 350.752167,313.213928 
	C365.922485,330.035187 385.975433,335.153656 407.536713,337.101746 
	C419.542389,338.186493 431.608917,339.643250 443.358215,342.242462 
	C456.551178,345.161041 467.783081,351.914154 474.739471,364.187866 
	C480.721222,374.741913 486.427551,385.454498 492.540741,395.930634 
	C496.023102,401.898376 500.445557,407.057556 508.092865,408.734100 
	C508.147552,408.973938 508.202209,409.213745 508.292023,410.311462 
z"/>
<path fill="#080808" opacity="1.000000" stroke="none" 
	d="
M208.028107,159.037888 
	C209.927963,155.741501 211.046844,150.833481 213.879028,149.461044 
	C221.371536,145.830292 229.431046,142.376740 237.584000,141.324051 
	C251.350098,139.546616 265.407928,138.620636 279.261688,139.219376 
	C309.292603,140.517273 339.060028,144.293396 367.382477,155.240585 
	C381.339539,160.635284 390.703186,170.555054 395.203369,185.046921 
	C398.016205,194.105042 402.252136,196.862396 411.742249,197.016739 
	C420.959961,197.166641 430.555511,195.850327 439.320465,197.951111 
	C464.717499,204.038254 484.434113,219.013611 499.229889,240.460617 
	C502.807739,245.646820 506.281738,250.912628 509.603699,256.265808 
	C517.490967,268.975891 511.210846,282.958099 499.558075,289.235504 
	C489.947144,294.412964 489.788452,296.057251 499.458740,301.832794 
	C509.127411,307.607361 517.947632,314.339935 525.214905,322.851624 
	C533.211426,332.217316 539.897827,342.655273 538.740601,355.571625 
	C538.233826,361.228455 535.011475,366.665253 532.880859,372.147003 
	C530.672180,377.829285 527.760376,383.294891 526.114868,389.125824 
	C523.770142,397.434235 520.257874,404.590515 511.961853,408.806213 
	C511.376923,408.546814 511.232483,408.401093 510.911377,407.974548 
	C509.821625,407.797333 508.909576,407.899902 507.997559,408.002441 
	C500.445557,407.057556 496.023102,401.898376 492.540741,395.930634 
	C486.427551,385.454498 480.721222,374.741913 474.739471,364.187866 
	C467.783081,351.914154 456.551178,345.161041 443.358215,342.242462 
	C431.608917,339.643250 419.542389,338.186493 407.536713,337.101746 
	C385.975433,335.153656 365.922485,330.035187 350.752167,313.213928 
	C339.685150,300.942505 333.572571,286.606537 332.956604,269.946228 
	C332.583496,259.855408 334.179932,250.123199 336.893250,240.461807 
	C338.679321,234.102203 335.707886,230.795135 329.151947,232.238220 
	C312.166382,235.977036 295.205933,239.862671 278.344330,244.120865 
	C266.280426,247.167465 254.440948,251.094269 242.407700,254.274002 
	C235.337585,256.142242 228.221466,255.209579 221.330109,252.862732 
	C218.122574,251.770416 214.119614,242.440964 215.517578,238.269363 
	C216.924942,234.069702 218.896286,230.016571 220.998108,226.101944 
	C224.235245,220.072754 223.626328,218.562744 216.990067,216.787415 
	C209.816864,214.868454 202.626831,212.961792 195.579651,210.638687 
	C190.034180,208.810638 188.704819,205.848145 190.117142,200.296051 
	C191.656662,194.243927 195.067978,189.504135 200.159790,185.896896 
	C203.407425,183.596115 206.746323,181.365311 209.695221,178.714783 
	C214.740921,174.179581 214.401978,171.138748 209.090469,166.999985 
	C206.943787,165.327301 203.622269,163.856964 206.968018,160.338211 
	C209.089798,160.234268 210.618210,159.926620 212.575195,159.642899 
	C215.001740,159.805328 216.999710,159.943848 219.006851,160.462952 
	C220.568848,162.226669 221.911880,164.294449 223.718872,164.848145 
	C227.309219,165.948334 231.327301,165.726929 234.844650,166.969070 
	C238.057877,168.103790 240.843353,170.449768 243.817352,172.261932 
	C241.045990,174.839859 238.598160,177.945633 235.435074,179.884476 
	C229.093491,183.771591 222.206467,186.771408 215.884689,190.686630 
	C214.006516,191.849838 213.263306,194.845612 211.712967,197.222961 
	C209.323090,197.978134 207.220276,198.512024 204.757156,199.038071 
	C203.596008,199.686050 202.795181,200.341873 201.661224,200.962341 
	C200.123535,201.036591 198.919006,201.146225 197.714478,201.255844 
	C201.362778,204.040573 204.271606,208.318085 209.411102,204.985184 
	C212.882019,204.648636 215.941238,204.323700 219.306625,204.279266 
	C226.706573,205.039932 233.836182,205.234192 240.879593,206.116531 
	C244.603226,206.583008 250.274521,207.258682 251.369583,209.582230 
	C253.473068,214.045502 247.805527,216.124146 245.050217,218.978210 
	C241.029678,223.142822 236.911331,227.222122 233.070984,231.547623 
	C231.289993,233.553619 231.501862,235.566696 234.407959,236.520508 
	C233.451782,237.509369 232.728058,238.253571 231.769760,238.993286 
	C231.535187,238.988770 231.065979,238.983261 230.689789,238.967834 
	C227.550537,240.452118 224.787476,241.951843 221.671829,243.642944 
	C222.932571,244.393524 223.462952,244.709290 224.047058,245.337097 
	C224.734482,246.099045 225.368149,246.548904 226.411728,246.998688 
	C230.880066,246.331467 234.938507,245.664368 239.312500,244.948303 
	C240.085556,244.266434 240.543060,243.633530 241.400482,243.000366 
	C242.866852,242.999680 243.933319,242.999237 245.178619,243.210785 
	C245.904984,242.948547 246.452499,242.474274 247.333328,241.999847 
	C248.111099,241.999542 248.555557,241.999390 249.207825,242.239746 
	C250.277100,241.986832 251.138550,241.493408 252.333328,240.999756 
	C253.111099,240.999298 253.555557,240.999115 254.225128,241.247894 
	C256.300171,240.997269 258.150085,240.497681 260.332916,239.998077 
	C261.109741,239.998077 261.553650,239.998077 262.312988,239.948868 
	C263.085632,239.266632 263.542816,238.633621 264.333313,238.000305 
	C265.111115,237.999725 265.555542,237.999451 266.178772,238.211121 
	C266.905060,237.948914 267.452545,237.474762 268.399231,236.989624 
	C276.640564,234.907822 284.411591,232.497040 292.340088,230.839020 
	C307.512756,227.666107 322.774963,224.921265 338.152588,222.211151 
	C338.870117,222.281738 339.435059,222.139969 340.399994,221.998322 
	C341.866669,221.998367 342.933319,221.998276 344.247253,222.259399 
	C348.933441,223.098282 350.614655,225.706177 349.952576,230.379242 
	C348.842499,233.662354 347.688019,236.538483 346.744629,239.482224 
	C345.415680,243.629028 344.243103,247.825943 343.003113,252.334625 
	C343.002563,253.112076 343.002563,253.556335 342.754059,254.220551 
	C342.669983,255.626999 342.834381,256.813507 342.998566,258.332916 
	C342.998077,259.109741 342.997833,259.553650 342.609711,260.103424 
	C339.788757,266.912201 340.674133,273.484222 343.002258,280.332550 
	C343.002594,281.110077 343.003113,281.554382 343.052185,282.377869 
	C343.742462,285.143768 343.956268,287.768402 345.121643,289.863922 
	C347.098358,293.418396 349.675323,296.639038 352.211853,300.116882 
	C352.687744,300.434906 352.879425,300.690308 353.005432,301.362244 
	C354.008057,302.816345 355.004028,303.908173 356.116333,305.212280 
	C356.433319,305.689240 356.688690,305.881073 357.000427,306.396118 
	C356.706238,310.525024 358.961151,311.228119 362.212006,311.116943 
	C362.688354,311.434814 362.880341,311.690186 363.049866,312.315247 
	C363.733429,313.086548 364.367065,313.542664 365.177979,314.233398 
	C365.903473,314.645325 366.451721,314.822662 367.049866,315.315247 
	C367.733551,316.086151 368.367401,316.541840 369.250916,316.998352 
	C369.500610,316.999146 370.000000,317.000000 370.044525,317.351807 
	C371.637115,319.092438 372.963745,321.116974 374.775696,321.748016 
	C379.741760,323.477448 384.911896,324.620911 390.334473,325.996887 
	C391.112030,325.997437 391.556335,325.997437 392.272888,326.266998 
	C396.697815,327.354980 400.850494,328.173401 405.335632,328.992615 
	C406.111389,328.993134 406.554688,328.992920 407.452301,328.994934 
	C410.938141,328.996948 413.969696,328.996643 417.334534,328.996826 
	C418.112213,328.997192 418.556641,328.997009 419.171326,329.303345 
	C421.561462,329.738678 423.781342,329.867523 426.376160,329.996948 
	C427.500977,329.997498 428.250885,329.997375 429.278748,330.267944 
	C433.831451,331.585083 438.076691,332.777130 442.386688,333.649231 
	C453.119141,335.820892 462.820892,340.357300 471.724579,346.559204 
	C473.918274,348.087280 475.510193,350.589813 477.112671,352.834320 
	C481.156281,358.497864 485.048401,364.269531 489.050720,370.313293 
	C489.733459,371.085846 490.366730,371.542938 491.128876,372.292542 
	C491.505585,373.389282 491.753418,374.193542 492.050720,375.313232 
	C492.733459,376.085785 493.366730,376.542908 494.000397,377.249695 
	C494.000793,377.499329 494.001221,377.998627 494.050751,378.313965 
	C494.733521,379.086212 495.366760,379.543121 496.000366,380.249695 
	C496.000763,380.499390 496.001221,380.998779 496.050812,381.314148 
	C496.733917,382.086334 497.367401,382.543152 498.001068,383.249512 
	C498.001251,383.499084 498.001221,383.998199 498.041870,384.339539 
	C499.388641,385.787079 500.694824,386.893311 502.000488,387.999756 
	C502.000000,388.000000 502.000275,387.999939 502.007843,388.349854 
	C502.676941,389.466522 503.338470,390.233246 504.039124,391.334045 
	C505.327240,392.801025 506.576233,393.933960 507.874451,395.425293 
	C508.223663,396.689453 508.523621,397.595215 508.823578,398.501007 
	C509.196991,398.439270 509.570435,398.377563 509.943848,398.315826 
	C509.943848,396.905731 509.943848,395.495605 509.971008,394.066589 
	C509.998138,394.047668 510.042816,393.998901 510.309387,393.727173 
	C512.461792,387.196655 514.381348,380.947784 516.220642,374.675323 
	C517.314148,370.946320 518.469360,367.489410 523.605530,369.519196 
	C523.828674,369.607422 524.515076,368.523712 524.986755,367.631287 
	C524.342102,366.476349 523.696411,365.676086 523.039795,364.566284 
	C523.017700,363.843933 523.006653,363.431091 523.260803,362.993042 
	C523.684082,362.010284 523.842224,361.052704 523.924194,359.608948 
	C523.759033,358.806885 523.670105,358.491089 523.440674,358.039825 
	C523.221375,357.642212 523.245667,357.390076 523.805664,357.058746 
	C524.825012,355.572113 525.795044,354.212677 525.938171,352.771149 
	C527.162964,340.433044 520.522034,331.197693 512.548279,323.383087 
	C501.638062,312.690552 488.251831,305.607819 473.695557,300.728760 
	C455.495636,294.628357 436.562134,294.251923 417.722290,292.994019 
	C405.741333,292.194092 394.161438,290.207764 385.850189,280.309357 
	C375.195648,267.620300 379.697876,249.205185 394.870697,246.033920 
	C400.239197,244.911850 406.060181,244.378052 411.437500,245.175140 
	C426.567108,247.417801 440.821716,252.344864 452.809601,262.338867 
	C461.781921,269.818939 470.796936,277.232147 482.430969,280.160339 
	C484.791168,280.754364 487.468750,280.087433 490.374817,280.001282 
	C491.499146,279.999969 492.248688,279.999115 493.363037,279.992493 
	C495.142914,278.641937 496.557983,277.297089 498.087585,275.745056 
	C498.401123,275.282654 498.651031,275.095306 499.325256,274.930756 
	C503.649078,271.198517 504.142548,265.997925 500.521820,259.137726 
	C486.670929,232.894226 466.204590,214.851929 436.613220,208.446274 
	C434.863403,208.067490 432.874054,208.795105 430.734741,209.096130 
	C427.984222,208.457870 425.495148,207.731354 422.698334,206.959564 
	C421.681396,206.515472 420.431244,205.671936 420.340912,205.781845 
	C416.498444,210.456192 411.529266,208.744644 406.973511,207.925140 
	C391.674133,205.173050 387.947998,202.290558 384.762177,189.754532 
	C381.385864,176.468887 373.459106,167.277969 359.941437,163.920090 
	C346.634735,160.614655 333.254608,157.497635 319.772552,155.031097 
	C300.954468,151.588348 281.913910,150.772003 262.897583,153.165115 
	C258.799011,153.680893 254.954636,156.216415 250.529938,157.894226 
	C237.493210,158.372009 224.919678,158.777115 211.915741,159.136017 
	C210.332932,159.072510 209.180511,159.055206 208.028107,159.037888 
M441.887482,265.527344 
	C429.775299,259.109467 417.465973,253.477341 403.244385,253.937698 
	C398.061554,254.105469 393.603821,255.349930 391.147247,260.187286 
	C388.638092,265.128174 390.077423,271.453888 394.295685,275.788971 
	C400.718994,282.390228 409.233124,283.186584 417.670166,283.971771 
	C429.193298,285.044159 440.728699,286.016968 452.275177,286.787750 
	C456.028198,287.038269 459.832458,286.521484 463.613281,286.355652 
	C463.747711,285.737000 463.882111,285.118378 464.016541,284.499725 
	C457.794281,277.262695 450.105408,271.644135 441.887482,265.527344 
z"/>
<path fill="#464646" opacity="1.000000" stroke="none" 
	d="
M511.089111,408.254333 
	C511.232483,408.401093 511.376923,408.546814 511.597534,408.820312 
	C511.672638,413.788696 511.672638,418.628204 511.672638,423.467743 
	C510.830078,423.476685 509.987518,423.485626 509.144958,423.494568 
	C508.860657,419.100189 508.576355,414.705841 508.566162,409.788086 
	C509.589935,408.927887 510.339508,408.591095 511.089111,408.254333 
z"/>
<path fill="#181818" opacity="1.000000" stroke="none" 
	d="
M212.146606,159.618973 
	C210.618210,159.926620 209.089798,160.234268 207.307159,160.282532 
	C207.348419,159.894241 207.594360,159.701935 207.909424,159.242065 
	C209.180511,159.055206 210.332932,159.072510 211.929718,159.274384 
	C212.374100,159.458954 212.146606,159.618973 212.146606,159.618973 
z"/>
<path fill="#090909" opacity="1.000000" stroke="none" 
	d="
M510.911377,407.974548 
	C510.339508,408.591095 509.589935,408.927887 508.548584,409.359131 
	C508.202209,409.213745 508.147552,408.973938 508.045227,408.368286 
	C508.909576,407.899902 509.821625,407.797333 510.911377,407.974548 
z"/>
<path fill="#F3F3F3" opacity="1.000000" stroke="none" 
	d="
M212.575195,159.642899 
	C212.146606,159.618973 212.374100,159.458954 212.360138,159.320587 
	C224.919678,158.777115 237.493210,158.372009 250.992218,157.977188 
	C259.273773,158.230911 266.629852,158.474350 274.424622,158.834427 
	C293.219025,161.365524 311.574799,163.779999 330.221710,166.427032 
	C343.995392,170.807816 357.477875,174.956024 371.183289,179.377960 
	C372.028717,180.774170 372.651184,181.896667 373.174438,183.396469 
	C373.323853,185.850647 373.572479,187.927521 373.751373,190.380432 
	C374.006195,192.218231 374.330750,193.679993 374.650024,195.529602 
	C377.360138,201.640625 380.075531,207.363785 382.916321,213.412750 
	C387.597229,219.010727 393.597321,219.666229 400.393616,219.186905 
	C409.851959,220.910278 418.914001,222.490601 428.224976,224.327301 
	C430.737701,225.391022 433.001495,226.198349 435.665955,227.148575 
	C435.665955,225.497330 435.665955,224.236359 435.883972,222.860703 
	C436.576996,223.223206 437.052002,223.700394 437.610565,224.527130 
	C440.375061,227.605377 443.056030,230.334076 446.383667,233.720978 
	C446.964264,230.733429 447.244354,229.292130 447.520569,227.870773 
	C450.635834,231.375717 453.494904,234.592438 457.146515,238.700836 
	C457.767395,235.884872 458.046814,234.617493 458.383575,233.090103 
	C462.892517,238.284821 465.254181,245.748917 474.364075,243.655365 
	C477.935089,248.208679 482.454498,252.262192 483.970856,257.231964 
	C485.306061,261.608063 488.076355,262.907501 491.261261,265.141144 
	C494.015747,266.241730 496.520752,267.083191 499.178406,268.191101 
	C499.154663,268.826385 498.978241,269.195190 498.465454,269.670410 
	C491.044708,274.748047 491.045258,274.747345 484.062164,269.362000 
	C483.668976,269.058716 483.255402,268.781860 482.605286,268.238983 
	C479.012512,265.791901 475.609802,263.678345 472.335846,261.381256 
	C469.459595,259.363159 466.727600,257.139465 463.950012,254.603668 
	C463.089233,252.303986 462.714050,249.589661 461.229919,248.675247 
	C457.808716,246.567383 453.848938,245.333694 449.867188,243.496918 
	C444.877747,241.267578 440.271362,238.768494 435.349945,237.414337 
	C425.326752,234.656433 415.133636,232.515961 404.562897,229.998077 
	C401.472839,229.916611 398.817993,229.807602 396.190002,230.024200 
	C379.363159,231.410995 366.167145,244.193649 365.019958,260.456696 
	C365.030548,264.259247 365.164001,267.617706 365.250793,271.333191 
	C365.789734,273.464752 366.375366,275.239288 366.957672,277.342041 
	C367.325745,278.444611 367.697144,279.218994 368.074097,280.345581 
	C369.685730,283.209930 371.291809,285.722076 372.994659,288.550415 
	C383.620331,301.798859 397.850739,306.021118 413.815918,306.230621 
	C437.705170,306.544037 461.282349,308.838287 484.104919,317.679382 
	C491.515869,322.109772 498.660461,326.333130 505.976135,330.822723 
	C510.175842,335.789459 514.204407,340.489929 518.320007,345.556580 
	C520.062317,349.664459 521.717651,353.406189 523.372986,357.147919 
	C523.245667,357.390076 523.221375,357.642212 523.258728,358.302368 
	C523.478394,359.165283 523.739380,359.630219 524.000366,360.095154 
	C523.842224,361.052704 523.684082,362.010284 523.150208,362.722412 
	C522.460938,361.987366 522.147522,361.497803 521.874390,360.649841 
	C520.249390,357.202576 518.583923,354.113647 516.870300,350.686340 
	C511.318176,344.594330 505.814270,338.840759 500.148987,332.815399 
	C490.999268,328.360107 482.010925,324.176605 472.775726,319.776062 
	C470.806183,319.302582 469.083496,319.046112 467.360809,318.789673 
	C467.291718,319.053864 467.222626,319.318054 467.153534,319.582245 
	C469.045593,320.500793 470.937622,321.419312 473.041748,322.588989 
	C478.767334,327.701141 484.280914,332.562134 489.900635,337.735596 
	C493.235840,343.070099 496.464905,348.092133 499.762390,353.480682 
	C501.861694,358.897186 503.892517,363.947205 505.917236,369.397278 
	C506.373474,371.713989 506.990326,373.608551 507.267517,375.551575 
	C507.935333,380.232269 508.444153,384.935638 509.017120,389.629883 
	C508.499725,389.664062 507.982361,389.698273 507.517456,389.499634 
	C507.361237,388.844849 507.152557,388.422943 506.986542,387.632935 
	C506.373688,385.175873 505.718170,383.086914 505.097534,380.674622 
	C504.814331,379.571411 504.496246,378.791534 504.176575,377.626160 
	C501.542358,371.123505 498.944275,364.990936 496.235779,358.907532 
	C495.877747,358.103363 494.956909,357.549774 494.253235,356.516724 
	C489.019165,347.254700 484.146210,338.106171 475.129028,331.832458 
	C458.033264,320.183014 438.923584,316.655914 418.594482,316.036987 
	C417.133911,315.941437 416.064056,315.946014 414.628296,315.790222 
	C411.829590,315.538818 409.396851,315.447815 406.523315,315.256592 
	C403.071869,315.049683 400.061218,314.942963 396.841827,314.643036 
	C396.077057,314.420410 395.520966,314.391022 394.611084,314.233582 
	C393.510590,314.045776 392.763855,313.985992 391.741150,313.690613 
	C373.481964,308.656372 361.529449,297.311310 355.118286,279.628113 
	C354.994263,278.871826 354.860107,278.449463 354.781250,277.745056 
	C354.610687,276.957153 354.384796,276.451324 354.175934,275.480164 
	C352.585114,258.135345 356.197418,243.008789 369.311218,230.871948 
	C373.044403,228.196655 376.451843,225.612823 379.981567,222.936279 
	C377.269470,216.468384 374.652313,210.226974 372.043884,203.645828 
	C371.332245,201.508347 370.611908,199.710602 369.866699,197.518372 
	C369.204651,195.419357 368.567474,193.714813 367.952820,191.626343 
	C366.748169,188.883331 366.095581,185.278900 364.186310,184.397903 
	C358.381317,181.719330 352.090912,180.092697 345.672241,177.865112 
	C330.980164,174.247849 316.605438,170.821945 301.867432,167.255707 
	C289.328552,165.526703 277.152924,163.938034 264.537750,162.229462 
	C253.726349,161.501984 243.354507,160.894379 232.527725,160.190918 
	C227.714432,160.090836 223.356049,160.086609 218.997681,160.082367 
	C216.999710,159.943848 215.001740,159.805328 212.575195,159.642899 
M457.840668,237.404037 
	C457.647614,237.319519 457.454590,237.235001 457.261536,237.150482 
	C457.308563,237.349609 457.355621,237.548752 457.840668,237.404037 
z"/>
<path fill="#000000" opacity="1.000000" stroke="none" 
	d="
M442.176758,265.749115 
	C450.105408,271.644135 457.794281,277.262695 464.016541,284.499725 
	C463.882111,285.118378 463.747711,285.737000 463.613281,286.355652 
	C459.832458,286.521484 456.028198,287.038269 452.275177,286.787750 
	C440.728699,286.016968 429.193298,285.044159 417.670166,283.971771 
	C409.233124,283.186584 400.718994,282.390228 394.295685,275.788971 
	C390.077423,271.453888 388.638092,265.128174 391.147247,260.187286 
	C393.603821,255.349930 398.061554,254.105469 403.244385,253.937698 
	C417.465973,253.477341 429.775299,259.109467 442.176758,265.749115 
z"/>
<path fill="#0F0F0F" opacity="1.000000" stroke="none" 
	d="
M505.062622,380.997955 
	C505.718170,383.086914 506.373688,385.175873 506.625763,387.622955 
	C505.177643,387.056702 503.895935,386.296387 503.125092,385.182526 
	C495.568695,374.263794 488.633789,362.866699 480.470490,352.428131 
	C469.471436,338.363434 453.188049,333.581421 436.556549,330.075470 
	C434.139832,329.566040 431.524292,329.999908 429.000763,329.997253 
	C428.250885,329.997375 427.500977,329.997498 426.287018,329.632446 
	C423.548981,329.177124 421.274994,329.087006 419.001038,328.996857 
	C418.556641,328.997009 418.112213,328.997192 417.233765,328.616760 
	C413.384949,326.577301 410.007568,325.402466 406.997986,328.992676 
	C406.554688,328.992920 406.111389,328.993134 405.314331,328.588867 
	C401.127350,324.570892 396.551697,325.357117 392.000671,325.997437 
	C391.556335,325.997437 391.112030,325.997437 390.253967,325.641663 
	C383.226807,322.523926 376.613403,319.761963 370.000000,317.000000 
	C370.000000,317.000000 369.500610,316.999146 369.200562,316.683472 
	C368.266998,315.911865 367.633514,315.455933 367.000000,315.000000 
	C366.451721,314.822662 365.903473,314.645325 365.127808,313.918335 
	C364.266937,312.912476 363.633484,312.456238 363.000000,312.000000 
	C362.880341,311.690186 362.688354,311.434814 362.057892,310.827179 
	C360.127441,308.946991 358.563110,307.473511 356.998779,306.000000 
	C356.688690,305.881073 356.433319,305.689240 356.080627,304.884644 
	C354.951996,303.229828 353.975372,302.114899 352.998779,301.000000 
	C352.879425,300.690308 352.687744,300.434906 352.168427,299.757568 
	C349.998871,295.229248 348.144684,291.147125 346.143005,287.138641 
	C345.249359,285.349030 344.059235,283.707458 343.003662,281.998688 
	C343.003113,281.554382 343.002594,281.110077 343.271454,280.061066 
	C343.359741,272.970093 343.178650,266.483826 342.997559,259.997559 
	C342.997833,259.553650 342.998077,259.109741 343.246826,258.112793 
	C343.331024,256.373352 343.166779,255.186966 343.002563,254.000595 
	C343.002563,253.556335 343.002563,253.112076 343.353638,252.261444 
	C347.397766,243.939148 351.458160,236.167953 354.654633,228.056305 
	C356.780701,222.660919 353.806030,218.890350 347.781647,219.111649 
	C340.195496,219.390335 332.474823,219.705795 325.099274,221.318451 
	C303.757172,225.984894 282.570190,231.357407 261.293396,236.328934 
	C257.600952,237.191711 253.767456,237.450867 250.251526,237.728241 
	C259.587677,234.579193 268.708771,231.799515 277.721375,228.703949 
	C279.381561,228.133728 280.602264,226.284058 282.354492,225.023987 
	C283.121399,225.020630 283.559662,225.018250 284.153229,225.225983 
	C284.871735,225.285461 285.434906,225.134811 286.329651,224.984818 
	C287.103271,224.982529 287.545380,224.979568 288.372681,224.934479 
	C291.838593,224.260422 294.919281,223.628540 298.226410,223.231842 
	C300.302979,222.646576 302.153137,221.826111 304.336060,221.003876 
	C305.112518,221.001602 305.556274,221.001114 306.178192,221.212555 
	C306.904236,220.953735 307.452087,220.482971 308.374939,220.009232 
	C309.499969,220.004166 310.249969,220.002075 311.178467,220.212158 
	C311.905945,219.951584 312.454987,219.478836 313.378479,219.004700 
	C314.501984,219.002014 315.251007,219.000702 316.192200,219.236847 
	C317.256317,219.313950 318.128204,219.153625 319.373962,218.993408 
	C320.495453,218.992340 321.243134,218.991150 322.391937,218.982635 
	C325.529114,218.314697 328.265106,217.654099 331.400146,216.993835 
	C332.863312,216.993240 333.927429,216.992264 335.287354,216.967682 
	C336.055450,216.627960 336.527710,216.311859 337.427948,215.995972 
	C339.568207,215.995010 341.280487,215.993851 343.329285,215.992126 
	C344.443817,215.660355 345.221924,215.329117 346.449951,214.997986 
	C349.599609,214.999100 352.299347,215.000137 355.063690,215.349014 
	C359.533356,218.399536 361.309540,222.003662 359.005798,227.338806 
	C359.003418,228.114029 359.001709,228.557022 358.684448,229.049637 
	C357.914062,229.734467 357.459320,230.369644 356.867004,231.313309 
	C356.152130,233.080673 355.574829,234.539536 354.659912,236.058960 
	C353.216278,238.081192 352.110291,240.042892 350.854797,242.341156 
	C350.469391,244.117859 350.233490,245.558014 349.682129,247.048492 
	C348.913818,247.735229 348.460938,248.371643 348.007141,249.435669 
	C348.002106,251.574295 347.997986,253.285324 347.642395,255.073929 
	C346.862610,256.436401 346.434357,257.721313 346.005859,259.380432 
	C346.005737,260.503052 346.005859,261.251495 345.767639,262.191406 
	C345.687347,263.255249 345.845367,264.127625 346.002930,265.428467 
	C346.002655,267.571289 346.002838,269.285645 345.789978,271.152344 
	C345.720062,271.869812 345.863251,272.434937 346.050842,273.363770 
	C346.397522,275.151642 346.699860,276.575836 346.789734,278.178284 
	C347.049866,278.905518 347.522491,279.454468 347.997620,280.401245 
	C348.335114,282.864197 348.670044,284.929321 349.052551,287.310364 
	C349.732361,288.084991 350.364563,288.543732 351.039062,289.353943 
	C351.722443,291.468689 352.363464,293.231995 353.034607,295.314972 
	C353.710602,296.422485 354.356537,297.210327 355.001221,297.999084 
	C355.000000,298.000000 355.002441,297.997559 355.051117,298.313232 
	C355.733185,299.085938 356.366608,299.542969 357.033142,300.318634 
	C357.711639,301.424042 358.357025,302.210815 359.033264,303.317017 
	C359.711060,304.422729 360.357971,305.208984 361.002441,305.997620 
	C361.000000,306.000000 361.004761,305.995117 361.161713,306.300781 
	C362.878693,307.404724 364.438751,308.202972 366.293518,309.152100 
	C368.725494,310.868652 370.862762,312.434326 373.057281,314.333740 
	C374.411652,315.443085 375.708771,316.218658 377.387024,317.045776 
	C381.510651,318.067047 385.253143,319.036774 389.046875,320.321472 
	C389.734802,321.088226 390.371460,321.540009 391.430542,321.994690 
	C395.568634,322.330658 399.284332,322.663818 403.243622,323.256958 
	C404.660797,323.675110 405.834381,323.833282 407.474792,323.992065 
	C415.626556,324.330109 423.311493,324.667511 431.033630,325.288635 
	C431.713898,325.713745 432.356934,325.855042 433.374847,325.997223 
	C434.499359,325.999542 435.249054,326.001007 436.085999,326.367859 
	C436.662598,327.121216 437.094238,327.701447 437.649902,327.867950 
	C444.577179,329.943634 451.589081,331.760559 458.440857,334.056854 
	C463.400757,335.719086 468.154388,337.996765 473.212372,340.116394 
	C473.689697,340.433350 473.881866,340.688660 474.050446,341.314514 
	C474.734741,342.085266 475.369812,342.540253 476.253662,342.995911 
	C476.502441,342.996582 477.000000,342.999237 477.040649,343.336853 
	C478.055023,344.448822 479.028748,345.223175 480.279114,346.135132 
	C481.371338,347.180969 482.186890,348.089264 483.051086,349.313324 
	C483.733582,350.085663 484.367401,350.542236 485.163818,351.234619 
	C485.883881,351.980713 486.441315,352.490967 487.006104,353.351135 
	C487.675659,354.467346 488.337830,355.233673 489.027985,356.293762 
	C489.371460,357.057220 489.686951,357.526978 490.051056,358.312469 
	C490.733124,359.085480 491.366547,359.542755 492.256897,360.227783 
	C495.675873,365.970367 498.837921,371.485199 502.006165,377.365479 
	C503.029114,378.819977 504.045868,379.908966 505.062622,380.997955 
z"/>
<path fill="#0D0D0D" opacity="1.000000" stroke="none" 
	d="
M523.805664,357.058746 
	C521.717651,353.406189 520.062317,349.664459 518.684692,345.384155 
	C519.047424,343.319092 519.761902,341.415771 519.111572,340.329681 
	C515.818604,334.830261 512.975220,328.716766 508.485840,324.348175 
	C498.137878,314.278809 485.469208,307.578247 471.752441,303.111328 
	C454.124695,297.370789 435.773560,296.737030 417.465515,296.012909 
	C404.602997,295.504089 392.657196,292.349884 383.967804,282.272675 
	C377.730896,275.039581 374.895020,266.535065 378.582428,256.837494 
	C382.063049,247.683685 389.297668,242.963013 398.306854,242.201889 
	C419.276184,240.430359 437.970642,247.383987 454.362244,260.060669 
	C464.392365,267.817627 473.934906,276.017426 487.412781,277.966614 
	C488.521606,277.980530 489.260803,277.990692 489.999084,278.334320 
	C489.998810,279.112457 489.999420,279.557098 490.000000,280.001770 
	C487.468750,280.087433 484.791168,280.754364 482.430969,280.160339 
	C470.796936,277.232147 461.781921,269.818939 452.809601,262.338867 
	C440.821716,252.344864 426.567108,247.417801 411.437500,245.175140 
	C406.060181,244.378052 400.239197,244.911850 394.870697,246.033920 
	C379.697876,249.205185 375.195648,267.620300 385.850189,280.309357 
	C394.161438,290.207764 405.741333,292.194092 417.722290,292.994019 
	C436.562134,294.251923 455.495636,294.628357 473.695557,300.728760 
	C488.251831,305.607819 501.638062,312.690552 512.548279,323.383087 
	C520.522034,331.197693 527.162964,340.433044 525.938171,352.771149 
	C525.795044,354.212677 524.825012,355.572113 523.805664,357.058746 
z"/>
<path fill="#1B1B1B" opacity="1.000000" stroke="none" 
	d="
M373.273651,183.019165 
	C372.651184,181.896667 372.028717,180.774170 371.156799,179.023453 
	C369.193817,176.724533 367.758026,174.179199 365.719482,173.531723 
	C355.894562,170.411209 345.940521,167.670746 335.946625,165.132874 
	C334.147156,164.675919 331.946167,165.800217 329.930542,166.194458 
	C311.574799,163.779999 293.219025,161.365524 274.524841,158.482971 
	C275.967804,157.345764 277.725586,156.168381 279.534210,156.084183 
	C304.735931,154.910858 329.517517,157.655365 353.918365,164.126266 
	C369.460236,168.247818 380.504517,176.453079 383.227631,193.471466 
	C383.737244,196.656357 385.750977,200.130936 388.105560,202.395935 
	C396.994781,210.946976 408.253265,211.562103 419.715973,210.444489 
	C420.913086,210.327759 421.914093,208.199707 423.006104,207.004837 
	C425.495148,207.731354 427.984222,208.457870 430.755524,209.347610 
	C431.694946,210.292526 432.352142,211.074219 432.721283,212.013947 
	C433.917633,213.321838 435.402039,214.471680 436.393982,215.710449 
	C431.292175,216.140060 426.646393,217.008286 422.082336,216.692978 
	C415.847473,216.262268 409.638123,215.122513 403.483490,213.943878 
	C392.087708,211.761597 381.159210,208.785995 378.498810,194.995392 
	C378.060577,192.723724 377.856720,190.331970 376.962463,188.245132 
	C376.141052,186.328232 374.534363,184.747818 373.273651,183.019165 
z"/>
<path fill="#F3F3F3" opacity="1.000000" stroke="none" 
	d="
M232.004333,238.997787 
	C232.728058,238.253571 233.451782,237.509369 234.716324,236.459625 
	C236.859940,235.159805 238.462738,234.165527 240.416595,233.121735 
	C246.840408,229.986115 252.913162,226.900009 259.339844,223.796967 
	C274.542114,218.387207 289.390411,212.994415 304.645386,207.590378 
	C314.365509,205.360428 323.678955,203.141724 333.409973,200.977676 
	C345.153442,200.051758 356.479401,199.071167 367.893646,198.432739 
	C368.670410,200.518234 369.358826,202.261536 369.852783,204.382416 
	C362.773895,205.489609 355.889465,206.219254 348.572021,206.894257 
	C342.556488,207.573380 336.942474,208.122787 331.397156,209.073257 
	C309.015411,212.909454 287.054993,218.351593 265.511047,226.754639 
	C257.050293,230.090576 248.967377,233.392136 240.517853,236.749756 
	C238.760834,237.310547 237.370453,237.815277 235.730927,238.211227 
	C235.320816,238.401520 235.159836,238.700577 234.757233,239.088440 
	C234.347366,239.211075 234.179123,239.244919 233.690277,239.166382 
	C232.921234,239.022629 232.472794,238.991257 232.011810,238.965393 
	C231.999283,238.970886 232.004333,238.997787 232.004333,238.997787 
z"/>
<path fill="#F3F3F3" opacity="1.000000" stroke="none" 
	d="
M205.117477,199.045914 
	C207.220276,198.512024 209.323090,197.978134 212.102646,197.251724 
	C219.187546,195.390656 225.595703,193.722107 232.413116,192.091003 
	C249.231705,189.534546 265.641022,186.940674 282.508240,184.443726 
	C293.628937,184.124451 304.291687,183.708237 315.403107,183.446625 
	C324.886688,183.970261 333.921600,184.339279 343.383911,184.833847 
	C348.937805,185.529709 354.055634,186.429993 359.193542,186.564941 
	C363.234711,186.671082 365.195679,188.527588 366.113220,192.451096 
	C364.725647,193.061356 363.334778,193.632874 362.000702,193.521896 
	C349.655945,192.494888 337.320923,191.350143 324.522675,190.151978 
	C321.079437,190.006638 318.090210,189.793716 315.114899,189.917206 
	C299.741852,190.555328 284.372345,191.279572 268.563751,191.903595 
	C251.377914,194.101562 234.629929,196.369736 217.465912,198.616776 
	C213.684158,199.353912 210.318420,200.112183 206.636124,200.922974 
	C205.893326,200.949722 205.467102,200.923935 205.025513,200.588654 
	C205.045929,199.868088 205.081696,199.457001 205.117477,199.045914 
z"/>
<path fill="#0D0D0D" opacity="1.000000" stroke="none" 
	d="
M232.003845,192.053574 
	C225.595703,193.722107 219.187546,195.390656 212.389725,197.030426 
	C213.263306,194.845612 214.006516,191.849838 215.884689,190.686630 
	C222.206467,186.771408 229.093491,183.771591 235.435074,179.884476 
	C238.598160,177.945633 241.045990,174.839859 243.817352,172.261932 
	C240.843353,170.449768 238.057877,168.103790 234.844650,166.969070 
	C231.327301,165.726929 227.309219,165.948334 223.718872,164.848145 
	C221.911880,164.294449 220.568848,162.226669 219.006851,160.462967 
	C223.356049,160.086609 227.714432,160.090836 232.529144,160.573578 
	C233.066391,164.922440 235.935699,164.631409 238.599487,165.039352 
	C245.902283,166.157715 253.206970,167.328995 260.427521,168.869980 
	C262.071838,169.220917 263.379364,171.149612 264.841919,172.352097 
	C263.420776,173.808533 262.258820,175.816681 260.534119,176.626953 
	C252.605270,180.352005 244.450928,183.598862 236.540604,187.360321 
	C234.700516,188.235306 233.499115,190.453445 232.003845,192.053574 
z"/>
<path fill="#0F0F0F" opacity="1.000000" stroke="none" 
	d="
M422.698334,206.959564 
	C421.914093,208.199707 420.913086,210.327759 419.715973,210.444489 
	C408.253265,211.562103 396.994781,210.946976 388.105560,202.395935 
	C385.750977,200.130936 383.737244,196.656357 383.227631,193.471466 
	C380.504517,176.453079 369.460236,168.247818 353.918365,164.126266 
	C329.517517,157.655365 304.735931,154.910858 279.534210,156.084183 
	C277.725586,156.168381 275.967804,157.345764 274.086182,158.366333 
	C266.629852,158.474350 259.273773,158.230911 251.455429,157.904541 
	C254.954636,156.216415 258.799011,153.680893 262.897583,153.165115 
	C281.913910,150.772003 300.954468,151.588348 319.772552,155.031097 
	C333.254608,157.497635 346.634735,160.614655 359.941437,163.920090 
	C373.459106,167.277969 381.385864,176.468887 384.762177,189.754532 
	C387.947998,202.290558 391.674133,205.173050 406.973511,207.925140 
	C411.529266,208.744644 416.498444,210.456192 420.340912,205.781845 
	C420.431244,205.671936 421.681396,206.515472 422.698334,206.959564 
z"/>
<path fill="#0D0D0D" opacity="1.000000" stroke="none" 
	d="
M249.999115,237.988846 
	C253.767456,237.450867 257.600952,237.191711 261.293396,236.328934 
	C282.570190,231.357407 303.757172,225.984894 325.099274,221.318451 
	C332.474823,219.705795 340.195496,219.390335 347.781647,219.111649 
	C353.806030,218.890350 356.780701,222.660919 354.654633,228.056305 
	C351.458160,236.167953 347.397766,243.939148 343.354187,251.928253 
	C344.243103,247.825943 345.415680,243.629028 346.744629,239.482224 
	C347.688019,236.538483 348.842499,233.662354 350.323792,230.285645 
	C350.974884,227.738892 352.066071,224.378769 351.264099,223.840805 
	C349.310028,222.529999 346.478302,222.527512 344.000000,221.998169 
	C342.933319,221.998276 341.866669,221.998367 340.247192,221.786530 
	C339.129608,221.715973 338.564819,221.857376 338.000000,221.998779 
	C322.774963,224.921265 307.512756,227.666107 292.340088,230.839020 
	C284.411591,232.497040 276.640564,234.907822 268.105011,237.016205 
	C266.941071,237.368912 266.470551,237.684052 266.000000,237.999176 
	C265.555542,237.999451 265.111115,237.999725 264.018158,238.049927 
	C262.912292,238.732590 262.454926,239.365341 261.997559,239.998077 
	C261.553650,239.998077 261.109741,239.998077 260.110840,239.765381 
	C257.703888,240.021423 255.851944,240.510162 254.000000,240.998901 
	C253.555557,240.999115 253.111099,240.999298 251.997894,241.002991 
	C250.552750,241.337402 249.776367,241.668320 249.000000,241.999237 
	C248.555557,241.999390 248.111099,241.999542 247.039124,242.026596 
	C245.940994,242.368607 245.470398,242.683685 244.999786,242.998779 
	C243.933319,242.999237 242.866852,242.999680 241.085327,243.049988 
	C239.912491,243.732330 239.454727,244.364792 238.996948,244.997253 
	C234.938507,245.664368 230.880066,246.331467 226.385010,246.706360 
	C225.636780,245.946350 225.325180,245.478561 225.043808,244.736191 
	C227.071350,242.635498 229.068665,240.809387 231.065979,238.983261 
	C231.065979,238.983261 231.535187,238.988770 231.769760,238.993286 
	C232.004333,238.997787 231.999283,238.970886 232.032135,239.293137 
	C232.709778,240.073212 233.354584,240.531036 234.068192,241.332932 
	C237.091583,241.114532 240.046173,240.552094 243.363586,239.945679 
	C245.817307,239.264099 247.908218,238.626480 249.999115,237.988846 
z"/>
<path fill="#0D0D0D" opacity="1.000000" stroke="none" 
	d="
M240.065536,233.171234 
	C238.462738,234.165527 236.859940,235.159805 234.948776,236.214966 
	C231.501862,235.566696 231.289993,233.553619 233.070984,231.547623 
	C236.911331,227.222122 241.029678,223.142822 245.050217,218.978210 
	C247.805527,216.124146 253.473068,214.045502 251.369583,209.582230 
	C250.274521,207.258682 244.603226,206.583008 240.879593,206.116531 
	C233.836182,205.234192 226.706573,205.039932 219.426453,204.064484 
	C219.446106,203.302307 219.706360,203.108154 220.405670,202.933258 
	C222.859024,202.583359 224.927597,202.286957 227.243805,202.249817 
	C228.994461,202.007080 230.497437,201.505066 232.375015,201.000580 
	C233.498764,200.996399 234.247910,200.994675 235.301224,201.274231 
	C238.066605,201.703735 240.538925,201.751190 242.986816,202.020554 
	C248.539017,202.631516 254.176544,202.923096 259.595703,204.153503 
	C264.566437,205.282074 265.102783,207.449966 261.418427,210.925079 
	C257.475983,214.643646 252.810471,217.586151 248.762527,221.205170 
	C245.049545,224.524719 240.092392,227.109421 240.065536,233.171234 
z"/>
<path fill="#0D0D0D" opacity="1.000000" stroke="none" 
	d="
M433.009338,211.855896 
	C432.352142,211.074219 431.694946,210.292526 431.016968,209.259338 
	C432.874054,208.795105 434.863403,208.067490 436.613220,208.446274 
	C466.204590,214.851929 486.670929,232.894226 500.521820,259.137726 
	C504.142548,265.997925 503.649078,271.198517 499.333374,274.480408 
	C498.912689,272.571442 498.857269,271.067749 498.801819,269.564026 
	C498.978241,269.195190 499.154663,268.826385 499.173523,267.796356 
	C498.960846,266.472870 499.052032,265.756470 498.829712,265.156128 
	C489.362305,239.586853 471.185455,223.110596 445.613678,214.482941 
	C444.591492,214.138077 443.097351,215.192001 441.473511,215.480072 
	C438.419037,214.195938 435.714172,213.025909 433.009338,211.855896 
z"/>
<path fill="#0F0F0F" opacity="1.000000" stroke="none" 
	d="
M521.834045,361.008240 
	C522.147522,361.497803 522.460938,361.987366 522.885010,362.747620 
	C523.006653,363.431091 523.017700,363.843933 523.019775,364.929443 
	C523.669006,366.396759 524.327393,367.191345 524.985718,367.985962 
	C524.515076,368.523712 523.828674,369.607422 523.605530,369.519196 
	C518.469360,367.489410 517.314148,370.946320 516.220642,374.675323 
	C514.381348,380.947784 512.461792,387.196655 510.024719,393.447083 
	C508.803925,392.203278 508.134430,390.967865 507.464966,389.732452 
	C507.982361,389.698273 508.499725,389.664062 509.017120,389.629883 
	C508.444153,384.935638 507.935333,380.232269 507.267517,375.551575 
	C506.990326,373.608551 506.373474,371.713989 506.270325,369.337921 
	C507.477844,367.540192 508.550598,366.293121 509.137604,364.848663 
	C512.674988,356.144531 512.730713,356.102448 520.365173,360.844543 
	C520.742920,361.079193 521.339417,360.961731 521.834045,361.008240 
z"/>
<path fill="#0D0D0D" opacity="1.000000" stroke="none" 
	d="
M507.517456,389.499634 
	C508.134430,390.967865 508.803925,392.203278 509.758118,393.718781 
	C510.042816,393.998901 509.998138,394.047668 509.663330,394.068695 
	C508.827423,394.415436 508.326324,394.741180 507.825256,395.066895 
	C506.576233,393.933960 505.327240,392.801025 504.007141,391.015045 
	C503.290802,389.574646 502.645538,388.787292 502.000275,387.999939 
	C502.000275,387.999939 502.000000,388.000000 501.959229,387.658661 
	C500.612701,386.210938 499.306976,385.104584 498.001221,383.998199 
	C498.001221,383.998199 498.001251,383.499084 497.951050,382.934357 
	C497.267609,381.912689 496.634430,381.455719 496.001221,380.998779 
	C496.001221,380.998779 496.000763,380.499390 495.950623,379.934509 
	C495.267365,378.912598 494.634308,378.455627 494.001221,377.998627 
	C494.001221,377.998627 494.000793,377.499329 493.950623,376.934448 
	C493.267365,375.912323 492.634277,375.455078 492.001221,374.997803 
	C491.753418,374.193542 491.505585,373.389282 491.079071,371.977295 
	C490.267334,370.912323 489.634277,370.455109 489.001221,369.997864 
	C485.048401,364.269531 481.156281,358.497864 477.112671,352.834320 
	C475.510193,350.589813 473.918274,348.087280 471.724579,346.559204 
	C462.820892,340.357300 453.119141,335.820892 442.386688,333.649231 
	C438.076691,332.777130 433.831451,331.585083 429.278748,330.267944 
	C431.524292,329.999908 434.139832,329.566040 436.556549,330.075470 
	C453.188049,333.581421 469.471436,338.363434 480.470490,352.428131 
	C488.633789,362.866699 495.568695,374.263794 503.125092,385.182526 
	C503.895935,386.296387 505.177643,387.056702 506.583069,387.991028 
	C507.152557,388.422943 507.361237,388.844849 507.517456,389.499634 
z"/>
<path fill="#232323" opacity="1.000000" stroke="none" 
	d="
M498.465454,269.670410 
	C498.857269,271.067749 498.912689,272.571442 498.960022,274.525513 
	C498.651031,275.095306 498.401123,275.282654 497.765503,275.787140 
	C496.216797,276.685883 495.104736,277.335358 493.593536,277.986145 
	C492.129608,277.991943 491.064789,277.996429 490.000000,278.000854 
	C489.260803,277.990692 488.521606,277.980530 487.364868,277.642090 
	C485.965790,276.207733 484.984314,275.101654 483.843140,273.700012 
	C482.118317,271.939941 480.553192,270.475433 479.476166,268.999512 
	C480.926575,268.822937 481.888947,268.657806 482.851288,268.492706 
	C483.255402,268.781860 483.668976,269.058716 484.062164,269.362000 
	C491.045258,274.747345 491.044708,274.748047 498.465454,269.670410 
z"/>
<path fill="#0F0F0F" opacity="1.000000" stroke="none" 
	d="
M220.020889,202.986740 
	C219.706360,203.108154 219.446106,203.302307 219.120300,203.783997 
	C215.941238,204.323700 212.882019,204.648636 209.257965,204.687500 
	C208.112976,203.224426 207.532837,202.047424 206.952698,200.870453 
	C210.318420,200.112183 213.684158,199.353912 217.597992,198.944809 
	C218.771042,200.524902 219.395966,201.755814 220.020889,202.986740 
z"/>
<path fill="#0D0D0D" opacity="1.000000" stroke="none" 
	d="
M370.044525,317.351807 
	C376.613403,319.761963 383.226807,322.523926 389.920715,325.641113 
	C384.911896,324.620911 379.741760,323.477448 374.775696,321.748016 
	C372.963745,321.116974 371.637115,319.092438 370.044525,317.351807 
z"/>
<path fill="#0D0D0D" opacity="1.000000" stroke="none" 
	d="
M206.636124,200.922974 
	C207.532837,202.047424 208.112976,203.224426 208.846252,204.699097 
	C204.271606,208.318085 201.362778,204.040573 197.714478,201.255844 
	C198.919006,201.146225 200.123535,201.036591 201.936432,201.082108 
	C203.376831,201.124207 204.208862,201.011169 205.040878,200.898148 
	C205.467102,200.923935 205.893326,200.949722 206.636124,200.922974 
z"/>
<path fill="#0D0D0D" opacity="1.000000" stroke="none" 
	d="
M342.609711,260.103424 
	C343.178650,266.483826 343.359741,272.970093 343.271667,279.727844 
	C340.674133,273.484222 339.788757,266.912201 342.609711,260.103424 
z"/>
<path fill="#0D0D0D" opacity="1.000000" stroke="none" 
	d="
M343.052185,282.377869 
	C344.059235,283.707458 345.249359,285.349030 346.143005,287.138641 
	C348.144684,291.147125 349.998871,295.229248 351.956543,299.640686 
	C349.675323,296.639038 347.098358,293.418396 345.121643,289.863922 
	C343.956268,287.768402 343.742462,285.143768 343.052185,282.377869 
z"/>
<path fill="#0D0D0D" opacity="1.000000" stroke="none" 
	d="
M392.272888,326.266998 
	C396.551697,325.357117 401.127350,324.570892 404.981873,328.588104 
	C400.850494,328.173401 396.697815,327.354980 392.272888,326.266998 
z"/>
<path fill="#090909" opacity="1.000000" stroke="none" 
	d="
M344.247253,222.259384 
	C346.478302,222.527512 349.310028,222.529999 351.264099,223.840805 
	C352.066071,224.378769 350.974884,227.738892 350.373657,229.908829 
	C350.614655,225.706177 348.933441,223.098282 344.247253,222.259384 
z"/>
<path fill="#0D0D0D" opacity="1.000000" stroke="none" 
	d="
M407.452301,328.994934 
	C410.007568,325.402466 413.384949,326.577301 416.900452,328.616241 
	C413.969696,328.996643 410.938141,328.996948 407.452301,328.994934 
z"/>
<path fill="#1B1B1B" opacity="1.000000" stroke="none" 
	d="
M230.689789,238.967834 
	C229.068665,240.809387 227.071350,242.635498 224.788712,244.741821 
	C224.333359,245.023026 224.163345,245.024033 223.993332,245.025040 
	C223.462952,244.709290 222.932571,244.393524 221.671829,243.642944 
	C224.787476,241.951843 227.550537,240.452118 230.689789,238.967834 
z"/>
<path fill="#0D0D0D" opacity="1.000000" stroke="none" 
	d="
M419.171326,329.303345 
	C421.274994,329.087006 423.548981,329.177124 425.912079,329.631805 
	C423.781342,329.867523 421.561462,329.738678 419.171326,329.303345 
z"/>
<path fill="#0D0D0D" opacity="1.000000" stroke="none" 
	d="
M357.000427,306.396118 
	C358.563110,307.473511 360.127441,308.946991 361.845886,310.710266 
	C358.961151,311.228119 356.706238,310.525024 357.000427,306.396118 
z"/>
<path fill="#0D0D0D" opacity="1.000000" stroke="none" 
	d="
M493.992676,277.984833 
	C495.104736,277.335358 496.216797,276.685883 497.650940,275.994324 
	C496.557983,277.297089 495.142914,278.641937 493.465576,279.730011 
	C493.466431,278.977112 493.729553,278.480957 493.992676,277.984833 
z"/>
<path fill="#090909" opacity="1.000000" stroke="none" 
	d="
M254.225128,241.247879 
	C255.851944,240.510162 257.703888,240.021423 259.777893,239.765381 
	C258.150085,240.497681 256.300171,240.997269 254.225128,241.247879 
z"/>
<path fill="#0F0F0F" opacity="1.000000" stroke="none" 
	d="
M507.874451,395.425293 
	C508.326324,394.741180 508.827423,394.415436 509.636169,394.087585 
	C509.943848,395.495605 509.943848,396.905731 509.943848,398.315826 
	C509.570435,398.377563 509.196991,398.439270 508.823578,398.501007 
	C508.523621,397.595215 508.223663,396.689453 507.874451,395.425293 
z"/>
<path fill="#090909" opacity="1.000000" stroke="none" 
	d="
M498.041870,384.339539 
	C499.306976,385.104584 500.612701,386.210938 501.959717,387.658447 
	C500.694824,386.893311 499.388641,385.787079 498.041870,384.339539 
z"/>
<path fill="#0D0D0D" opacity="1.000000" stroke="none" 
	d="
M342.754028,254.220551 
	C343.166779,255.186966 343.331024,256.373352 343.247009,257.779846 
	C342.834381,256.813507 342.669983,255.626999 342.754028,254.220551 
z"/>
<path fill="#0D0D0D" opacity="1.000000" stroke="none" 
	d="
M353.005432,301.362244 
	C353.975372,302.114899 354.951996,303.229828 355.964294,304.672363 
	C355.004028,303.908173 354.008057,302.816345 353.005432,301.362244 
z"/>
<path fill="#0F0F0F" opacity="1.000000" stroke="none" 
	d="
M205.025513,200.588654 
	C204.208862,201.011169 203.376831,201.124207 202.269592,201.117477 
	C202.795181,200.341873 203.596008,199.686050 204.757156,199.038071 
	C205.081696,199.457001 205.045929,199.868088 205.025513,200.588654 
z"/>
<path fill="#141414" opacity="1.000000" stroke="none" 
	d="
M493.593536,277.986145 
	C493.729553,278.480957 493.466431,278.977112 493.100769,279.735718 
	C492.248688,279.999115 491.499146,279.999969 490.374817,280.001282 
	C489.999420,279.557098 489.998810,279.112457 489.999084,278.334351 
	C491.064789,277.996429 492.129608,277.991943 493.593536,277.986145 
z"/>
<path fill="#090909" opacity="1.000000" stroke="none" 
	d="
M249.207825,242.239746 
	C249.776367,241.668320 250.552750,241.337402 251.664566,241.003235 
	C251.138550,241.493408 250.277100,241.986832 249.207825,242.239746 
z"/>
<path fill="#181818" opacity="1.000000" stroke="none" 
	d="
M524.986755,367.631287 
	C524.327393,367.191345 523.669006,366.396759 523.030701,365.238983 
	C523.696411,365.676086 524.342102,366.476349 524.986755,367.631287 
z"/>
<path fill="#090909" opacity="1.000000" stroke="none" 
	d="
M502.007843,388.349854 
	C502.645538,388.787292 503.290802,389.574646 503.968048,390.681000 
	C503.338470,390.233246 502.676941,389.466522 502.007843,388.349854 
z"/>
<path fill="#090909" opacity="1.000000" stroke="none" 
	d="
M496.050812,381.314148 
	C496.634430,381.455719 497.267609,381.912689 497.950867,382.684814 
	C497.367401,382.543152 496.733917,382.086334 496.050812,381.314148 
z"/>
<path fill="#090909" opacity="1.000000" stroke="none" 
	d="
M494.050751,378.313965 
	C494.634308,378.455627 495.267365,378.912598 495.950226,379.684814 
	C495.366760,379.543121 494.733521,379.086212 494.050751,378.313965 
z"/>
<path fill="#090909" opacity="1.000000" stroke="none" 
	d="
M492.050720,375.313232 
	C492.634277,375.455078 493.267365,375.912323 493.950195,376.684814 
	C493.366730,376.542908 492.733459,376.085785 492.050720,375.313232 
z"/>
<path fill="#090909" opacity="1.000000" stroke="none" 
	d="
M489.050720,370.313293 
	C489.634277,370.455109 490.267334,370.912323 490.950195,371.684814 
	C490.366730,371.542938 489.733459,371.085846 489.050720,370.313293 
z"/>
<path fill="#090909" opacity="1.000000" stroke="none" 
	d="
M338.152588,222.211151 
	C338.564819,221.857376 339.129608,221.715973 339.847229,221.786377 
	C339.435059,222.139969 338.870117,222.281738 338.152588,222.211151 
z"/>
<path fill="#090909" opacity="1.000000" stroke="none" 
	d="
M266.178772,238.211121 
	C266.470551,237.684052 266.941071,237.368912 267.705811,237.027206 
	C267.452545,237.474762 266.905060,237.948914 266.178772,238.211121 
z"/>
<path fill="#090909" opacity="1.000000" stroke="none" 
	d="
M262.312988,239.948853 
	C262.454926,239.365341 262.912292,238.732590 263.684814,238.050232 
	C263.542816,238.633621 263.085632,239.266632 262.312988,239.948853 
z"/>
<path fill="#090909" opacity="1.000000" stroke="none" 
	d="
M245.178619,243.210785 
	C245.470398,242.683685 245.940994,242.368607 246.705811,242.026764 
	C246.452499,242.474274 245.904984,242.948547 245.178619,243.210785 
z"/>
<path fill="#090909" opacity="1.000000" stroke="none" 
	d="
M239.312500,244.948303 
	C239.454727,244.364792 239.912491,243.732330 240.685410,243.050232 
	C240.543060,243.633530 240.085556,244.266434 239.312500,244.948303 
z"/>
<path fill="#090909" opacity="1.000000" stroke="none" 
	d="
M224.047058,245.337097 
	C224.163345,245.024033 224.333359,245.023026 224.758484,245.016388 
	C225.325180,245.478561 225.636780,245.946350 225.975098,246.706467 
	C225.368149,246.548904 224.734482,246.099045 224.047058,245.337097 
z"/>
<path fill="#0D0D0D" opacity="1.000000" stroke="none" 
	d="
M363.049866,312.315247 
	C363.633484,312.456238 364.266937,312.912476 364.950562,313.683746 
	C364.367065,313.542664 363.733429,313.086548 363.049866,312.315247 
z"/>
<path fill="#0D0D0D" opacity="1.000000" stroke="none" 
	d="
M367.049866,315.315247 
	C367.633514,315.455933 368.266998,315.911865 368.950867,316.682678 
	C368.367401,316.541840 367.733551,316.086151 367.049866,315.315247 
z"/>
<path fill="#0D0D0D" opacity="1.000000" stroke="none" 
	d="
M523.924194,359.608948 
	C523.739380,359.630219 523.478394,359.165283 523.399292,358.437805 
	C523.670105,358.491089 523.759033,358.806885 523.924194,359.608948 
z"/>
<path fill="#262626" opacity="1.000000" stroke="none" 
	d="
M482.605286,268.238983 
	C481.888947,268.657806 480.926575,268.822937 479.103455,268.996521 
	C477.496674,268.999115 476.750671,268.993286 475.952576,268.673279 
	C475.263611,267.908752 474.626740,267.458374 473.674591,266.863770 
	C471.235168,265.820221 469.110962,264.920990 466.739746,264.016846 
	C466.492737,264.011932 465.998688,264.001221 465.849030,263.704254 
	C458.351471,253.874969 448.408600,247.948929 437.416046,243.805557 
	C423.559937,238.582809 409.490753,233.437057 394.309296,237.069794 
	C376.920197,241.230804 368.039124,252.927185 371.996735,271.337433 
	C375.407501,287.203979 386.719513,296.598297 401.654938,299.583466 
	C416.658936,302.582306 432.238739,302.781799 447.585297,303.958984 
	C459.531036,304.875305 470.794159,307.949036 481.257324,313.749298 
	C482.441711,314.405853 482.993439,316.203705 483.838531,317.472351 
	C461.282349,308.838287 437.705170,306.544037 413.815918,306.230621 
	C397.850739,306.021118 383.620331,301.798859 373.023987,288.162048 
	C371.327240,284.969482 369.697906,282.481445 368.068573,279.993378 
	C367.697144,279.218994 367.325745,278.444611 367.211670,277.121338 
	C366.745178,274.707001 366.021332,272.841583 365.297485,270.976166 
	C365.164001,267.617706 365.030548,264.259247 365.378204,260.395111 
	C366.788086,257.933960 367.719757,255.979858 368.645111,254.022766 
	C374.577606,241.475662 384.823578,235.442505 398.308624,233.839966 
	C400.656769,233.560898 402.782227,231.408340 405.010529,230.121094 
	C415.133636,232.515961 425.326752,234.656433 435.349945,237.414337 
	C440.271362,238.768494 444.877747,241.267578 449.871704,243.859344 
	C454.721771,247.982315 459.326813,251.494446 463.931885,255.006592 
	C466.727600,257.139465 469.459595,259.363159 472.335846,261.381256 
	C475.609802,263.678345 479.012512,265.791901 482.605286,268.238983 
z"/>
<path fill="#141414" opacity="1.000000" stroke="none" 
	d="
M465.998688,264.001221 
	C465.998688,264.001221 466.492737,264.011932 466.750641,264.386230 
	C467.513794,265.738708 467.777954,267.256439 468.563446,267.607422 
	C473.646545,269.878601 478.843323,271.895386 484.002838,273.995575 
	C484.984314,275.101654 485.965790,276.207733 486.995239,277.638336 
	C473.934906,276.017426 464.392365,267.817627 454.362244,260.060669 
	C437.970642,247.383987 419.276184,240.430359 398.306854,242.201889 
	C389.297668,242.963013 382.063049,247.683685 378.582428,256.837494 
	C374.895020,266.535065 377.730896,275.039581 383.967804,282.272675 
	C392.657196,292.349884 404.602997,295.504089 417.465515,296.012909 
	C435.773560,296.737030 454.124695,297.370789 471.752441,303.111328 
	C485.469208,307.578247 498.137878,314.278809 508.485840,324.348175 
	C512.975220,328.716766 515.818604,334.830261 519.111572,340.329681 
	C519.761902,341.415771 519.047424,343.319092 518.597656,345.018005 
	C514.204407,340.489929 510.175842,335.789459 506.022400,330.424438 
	C505.001862,328.077606 504.471558,326.003540 503.153442,324.774292 
	C491.348267,313.765472 477.487610,306.032043 461.696167,303.258118 
	C447.559601,300.774902 433.066223,300.307129 418.724670,299.012421 
	C409.431122,298.173401 400.198792,297.130219 391.868317,292.424713 
	C381.092377,286.337860 374.147858,277.199585 374.229187,264.786377 
	C374.324249,250.278534 383.571014,240.407990 400.162018,239.196564 
	C419.587128,237.778198 437.000641,244.646851 452.987030,255.359940 
	C457.312164,258.258392 461.660828,261.121765 465.998688,264.001221 
z"/>
<path fill="#1B1B1B" opacity="1.000000" stroke="none" 
	d="
M347.993896,254.996338 
	C347.997986,253.285324 348.002106,251.574295 348.321625,249.383743 
	C349.090546,248.268860 349.544037,247.633514 349.997559,246.998169 
	C350.233490,245.558014 350.469391,244.117859 351.192230,242.279846 
	C352.785278,239.920807 353.891418,237.959610 354.997559,235.998413 
	C355.574829,234.539536 356.152130,233.080673 357.181915,231.262512 
	C358.089600,230.268814 358.544800,229.634399 359.000000,229.000000 
	C359.001709,228.557022 359.003418,228.114029 359.369324,227.261597 
	C364.458191,221.116760 362.537567,216.309174 354.999054,215.001175 
	C352.299347,215.000137 349.599609,214.999100 346.242157,214.757690 
	C344.720551,215.009109 343.856689,215.500900 342.992798,215.992676 
	C341.280487,215.993851 339.568207,215.995010 337.248962,215.784546 
	C336.091858,216.045700 335.541687,216.518494 334.991547,216.991302 
	C333.927429,216.992264 332.863312,216.993240 331.181274,216.744110 
	C329.703644,216.322906 328.843933,216.151810 328.085510,215.604980 
	C328.387482,214.971939 328.571625,214.504715 328.791229,214.487411 
	C339.501282,213.643539 350.204010,212.524811 360.931824,212.168869 
	C365.867004,212.005127 368.573242,216.315018 367.042755,221.131699 
	C365.957733,224.546371 364.479614,228.044296 362.348083,230.882614 
	C352.584137,243.884186 349.043182,258.596985 350.120239,274.491455 
	C350.476685,279.751038 351.066772,285.379333 356.004395,289.329346 
	C356.016479,290.095093 356.021759,290.532715 356.024231,291.339600 
	C357.683136,293.804749 359.344879,295.900635 361.015015,298.237671 
	C361.023438,298.478882 361.028595,298.961487 361.058228,299.308899 
	C363.732117,302.097260 366.376343,304.538177 369.011505,306.989563 
	C369.002441,307.000000 369.015015,306.979492 369.157715,307.277710 
	C370.543365,308.376923 371.786346,309.177917 373.320801,310.007629 
	C374.077881,310.352539 374.543457,310.668701 375.072144,311.329620 
	C375.439880,312.048828 375.670807,312.546051 376.060028,312.779816 
	C386.485199,319.041962 398.221313,320.398621 409.917145,320.847748 
	C425.737122,321.455261 441.102570,323.580994 456.162537,328.737061 
	C470.068604,333.498047 481.858093,340.683014 490.132904,353.104736 
	C491.140198,354.616821 492.890686,355.633728 494.296753,356.880127 
	C494.956909,357.549774 495.877747,358.103363 496.235779,358.907532 
	C498.944275,364.990936 501.542358,371.123505 503.892273,377.527893 
	C503.073059,377.543365 502.536530,377.271698 502.000000,377.000000 
	C498.837921,371.485199 495.675873,365.970367 492.207733,359.912354 
	C491.268585,358.911682 490.635529,358.454193 490.002441,357.996704 
	C489.686951,357.526978 489.371460,357.057220 488.996704,355.974548 
	C488.291199,354.574799 487.644989,353.788025 486.998779,353.001221 
	C486.441315,352.490967 485.883881,351.980713 485.114258,350.919373 
	C484.268890,349.911407 483.635651,349.454468 483.002441,348.997559 
	C482.186890,348.089264 481.371338,347.180969 480.237793,345.797913 
	C478.946564,344.548492 477.973267,343.773865 477.000000,342.999237 
	C477.000000,342.999237 476.502441,342.996582 476.202911,342.681030 
	C475.269348,341.909943 474.635284,341.454346 474.001221,340.998779 
	C473.881866,340.688660 473.689697,340.433350 473.050903,339.815887 
	C461.517578,332.013092 449.057495,328.188202 435.998718,326.002441 
	C435.249054,326.001007 434.499359,325.999542 433.197266,325.762695 
	C432.095367,325.353180 431.545898,325.179047 430.996399,325.004883 
	C423.311493,324.667511 415.626556,324.330109 407.406799,323.658569 
	C405.581268,323.215271 404.290649,323.106110 403.000000,322.996948 
	C399.284332,322.663818 395.568634,322.330658 391.378418,321.680145 
	C390.267761,320.910706 389.631683,320.458618 388.995636,320.006531 
	C385.253143,319.036774 381.510651,318.067047 377.328125,316.712830 
	C375.592072,315.552216 374.296021,314.776123 373.000000,314.000000 
	C370.862762,312.434326 368.725494,310.868652 366.135559,308.847168 
	C364.123505,307.592590 362.564117,306.793854 361.004761,305.995117 
	C361.004761,305.995117 361.000000,306.000000 360.994446,305.648071 
	C360.326752,304.529938 359.664581,303.763733 359.002411,302.997559 
	C358.357025,302.210815 357.711639,301.424042 356.983978,300.003235 
	C356.268585,298.911957 355.635529,298.454773 355.002441,297.997559 
	C355.002441,297.997559 355.000000,298.000000 354.993835,297.649292 
	C354.326599,296.530792 353.665558,295.763031 353.004517,294.995270 
	C352.363464,293.231995 351.722443,291.468689 350.991028,289.038269 
	C350.268768,287.912231 349.636871,287.453339 349.004974,286.994415 
	C348.670044,284.929321 348.335114,282.864197 347.973022,280.106506 
	C347.631287,278.942627 347.316711,278.471313 347.002197,278.000000 
	C346.699860,276.575836 346.397522,275.151642 346.262299,273.210876 
	C346.287292,272.129486 346.145172,271.564758 346.003052,271.000000 
	C346.002838,269.285645 346.002655,267.571289 346.239563,265.236267 
	C346.319794,263.743713 346.162872,262.871826 346.005951,261.999908 
	C346.005859,261.251495 346.005737,260.503052 346.357269,259.302399 
	C347.137207,257.565552 347.565552,256.280945 347.993896,254.996338 
z"/>
<path fill="#1B1B1B" opacity="1.000000" stroke="none" 
	d="
M465.849030,263.704254 
	C461.660828,261.121765 457.312164,258.258392 452.987030,255.359940 
	C437.000641,244.646851 419.587128,237.778198 400.162018,239.196564 
	C383.571014,240.407990 374.324249,250.278534 374.229187,264.786377 
	C374.147858,277.199585 381.092377,286.337860 391.868317,292.424713 
	C400.198792,297.130219 409.431122,298.173401 418.724670,299.012421 
	C433.066223,300.307129 447.559601,300.774902 461.696167,303.258118 
	C477.487610,306.032043 491.348267,313.765472 503.153442,324.774292 
	C504.471558,326.003540 505.001862,328.077606 505.851257,330.158203 
	C498.660461,326.333130 491.515869,322.109772 484.104919,317.679382 
	C482.993439,316.203705 482.441711,314.405853 481.257324,313.749298 
	C470.794159,307.949036 459.531036,304.875305 447.585297,303.958984 
	C432.238739,302.781799 416.658936,302.582306 401.654938,299.583466 
	C386.719513,296.598297 375.407501,287.203979 371.996735,271.337433 
	C368.039124,252.927185 376.920197,241.230804 394.309296,237.069794 
	C409.490753,233.437057 423.559937,238.582809 437.416046,243.805557 
	C448.408600,247.948929 458.351471,253.874969 465.849030,263.704254 
z"/>
<path fill="#181818" opacity="1.000000" stroke="none" 
	d="
M232.413116,192.091003 
	C233.499115,190.453445 234.700516,188.235306 236.540604,187.360321 
	C244.450928,183.598862 252.605270,180.352005 260.534119,176.626953 
	C262.258820,175.816681 263.420776,173.808533 264.841919,172.352097 
	C263.379364,171.149612 262.071838,169.220917 260.427521,168.869980 
	C253.206970,167.328995 245.902283,166.157715 238.599487,165.039352 
	C235.935699,164.631409 233.066391,164.922440 232.984070,160.669403 
	C243.354507,160.894379 253.726349,161.501984 264.601074,162.561142 
	C266.680389,164.134598 268.108154,165.788162 269.861298,166.278641 
	C275.095642,167.743073 280.527802,168.510925 285.741455,170.034302 
	C288.570770,170.861038 291.112885,172.670761 293.784546,174.037079 
	C291.585510,175.996155 289.395416,177.965408 287.184509,179.911011 
	C285.486725,181.405060 283.762665,182.869293 282.050323,184.346786 
	C265.641022,186.940674 249.231705,189.534546 232.413116,192.091003 
z"/>
<path fill="#232323" opacity="1.000000" stroke="none" 
	d="
M355.997559,289.001221 
	C351.066772,285.379333 350.476685,279.751038 350.120239,274.491455 
	C349.043182,258.596985 352.584137,243.884186 362.348083,230.882614 
	C364.479614,228.044296 365.957733,224.546371 367.042755,221.131699 
	C368.573242,216.315018 365.867004,212.005127 360.931824,212.168869 
	C350.204010,212.524811 339.501282,213.643539 328.791229,214.487411 
	C328.571625,214.504715 328.387482,214.971939 327.756104,215.607941 
	C326.885864,215.983963 326.446350,215.981339 325.739624,215.716858 
	C319.648285,216.636047 313.824127,217.817108 307.667847,218.999695 
	C306.892853,219.003479 306.450012,219.005707 305.670593,219.008347 
	C304.556030,219.340759 303.778015,219.672745 302.668274,220.005585 
	C301.894348,220.008957 301.452148,220.011490 300.616821,220.019653 
	C296.144958,221.675751 292.066193,223.326187 287.987457,224.976624 
	C287.545380,224.979568 287.103271,224.982529 286.175354,224.774323 
	C285.125641,224.714066 284.561768,224.864975 283.997894,225.015869 
	C283.559662,225.018250 283.121399,225.020630 281.971313,225.063507 
	C279.548920,225.668976 277.864044,226.598877 276.122375,226.721329 
	C272.728027,226.959976 269.301880,226.746506 265.888916,226.720276 
	C287.054993,218.351593 309.015411,212.909454 331.397156,209.073257 
	C336.942474,208.122787 342.556488,207.573380 348.667603,207.280212 
	C354.470062,208.476410 359.724487,209.640320 365.022217,209.891800 
	C372.954956,210.268372 375.145966,213.073242 372.529938,220.760361 
	C371.998901,222.320847 370.952911,223.705734 370.418365,225.265472 
	C369.785614,227.111649 369.449921,229.059601 368.985443,230.963440 
	C356.197418,243.008789 352.585114,258.135345 353.941986,275.623413 
	C354.035980,276.830383 354.380951,277.428741 354.725952,278.027130 
	C354.860107,278.449463 354.994263,278.871826 354.842194,279.867249 
	C355.036499,283.293945 355.517029,286.147583 355.997559,289.001221 
z"/>
<path fill="#232323" opacity="1.000000" stroke="none" 
	d="
M282.508240,184.443726 
	C283.762665,182.869293 285.486725,181.405060 287.184509,179.911011 
	C289.395416,177.965408 291.585510,175.996155 293.784546,174.037079 
	C291.112885,172.670761 288.570770,170.861038 285.741455,170.034302 
	C280.527802,168.510925 275.095642,167.743073 269.861298,166.278641 
	C268.108154,165.788162 266.680389,164.134598 265.040588,162.681030 
	C277.152924,163.938034 289.328552,165.526703 301.832703,167.645203 
	C304.226257,169.768845 306.072449,171.884018 308.396912,172.859970 
	C315.740997,175.943481 315.980347,176.044846 314.954437,183.292007 
	C304.291687,183.708237 293.628937,184.124451 282.508240,184.443726 
z"/>
<path fill="#232323" opacity="1.000000" stroke="none" 
	d="
M373.174438,183.396469 
	C374.534363,184.747818 376.141052,186.328232 376.962463,188.245132 
	C377.856720,190.331970 378.060577,192.723724 378.498810,194.995392 
	C381.159210,208.785995 392.087708,211.761597 403.483490,213.943878 
	C409.638123,215.122513 415.847473,216.262268 422.082336,216.692978 
	C426.646393,217.008286 431.292175,216.140060 436.681213,215.879242 
	C441.643677,218.481979 445.826508,221.004822 449.488403,223.634888 
	C445.153961,223.887283 441.340515,224.032425 437.527039,224.177582 
	C437.052002,223.700394 436.576996,223.223206 435.475067,222.859283 
	C432.557465,223.338669 430.266724,223.704788 427.976013,224.070923 
	C418.914001,222.490601 409.851959,220.910278 400.327881,218.827301 
	C394.174164,216.578751 388.482544,214.832855 382.790924,213.086960 
	C380.075531,207.363785 377.360138,201.640625 374.961121,195.302200 
	C376.204437,192.686798 376.879272,190.765045 373.821106,190.004395 
	C373.572479,187.927521 373.323853,185.850647 373.174438,183.396469 
z"/>
<path fill="#181818" opacity="1.000000" stroke="none" 
	d="
M441.823120,215.594208 
	C443.097351,215.192001 444.591492,214.138077 445.613678,214.482941 
	C471.185455,223.110596 489.362305,239.586853 498.829712,265.156128 
	C499.052032,265.756470 498.960846,266.472870 499.020813,267.529877 
	C496.520752,267.083191 494.015747,266.241730 491.263672,264.725281 
	C492.374268,253.301117 474.719330,233.933441 467.190216,230.737976 
	C466.622009,230.496841 465.632629,231.248016 464.522491,231.383423 
	C456.744995,226.017365 449.284058,220.805801 441.823120,215.594208 
z"/>
<path fill="#2D2D2D" opacity="1.000000" stroke="none" 
	d="
M315.403107,183.446625 
	C315.980347,176.044846 315.740997,175.943481 308.396912,172.859970 
	C306.072449,171.884018 304.226257,169.768845 302.195923,167.785522 
	C316.605438,170.821945 330.980164,174.247849 345.665222,178.221497 
	C344.969177,180.748917 343.962860,182.728607 342.956512,184.708282 
	C333.921600,184.339279 324.886688,183.970261 315.403107,183.446625 
z"/>
<path fill="#232323" opacity="1.000000" stroke="none" 
	d="
M494.253235,356.516724 
	C492.890686,355.633728 491.140198,354.616821 490.132904,353.104736 
	C481.858093,340.683014 470.068604,333.498047 456.162537,328.737061 
	C441.102570,323.580994 425.737122,321.455261 409.917145,320.847748 
	C398.221313,320.398621 386.485199,319.041962 376.060028,312.779816 
	C375.670807,312.546051 375.439880,312.048828 375.455383,311.338562 
	C380.257080,312.405396 384.713989,313.899475 389.244293,315.121277 
	C390.005798,315.326630 391.084839,314.354370 392.017151,313.926208 
	C392.763855,313.985992 393.510590,314.045776 394.664307,314.502075 
	C395.731079,314.877838 396.390808,314.857056 397.050537,314.836273 
	C400.061218,314.942963 403.071869,315.049683 406.602081,315.609985 
	C409.783539,318.653748 412.418518,319.367523 414.994202,315.950592 
	C416.064056,315.946014 417.133911,315.941437 418.655334,316.395721 
	C421.225098,317.893066 423.243500,319.386414 425.481781,319.877441 
	C430.480164,320.973969 435.746002,321.037811 440.618927,322.481049 
	C450.921783,325.532410 461.025360,329.252014 471.261963,332.537720 
	C472.433502,332.913696 473.931671,332.271942 475.278381,332.102081 
	C484.146210,338.106171 489.019165,347.254700 494.253235,356.516724 
z"/>
<path fill="#353535" opacity="1.000000" stroke="none" 
	d="
M324.983093,190.239609 
	C337.320923,191.350143 349.655945,192.494888 362.000702,193.521896 
	C363.334778,193.632874 364.725647,193.061356 366.561951,192.434235 
	C367.332550,192.044800 367.631409,192.027527 367.930298,192.010269 
	C368.567474,193.714813 369.204651,195.419357 369.344391,197.554382 
	C368.499756,198.020081 368.152557,198.055328 367.805328,198.090576 
	C356.479401,199.071167 345.153442,200.051758 333.401001,200.613525 
	C331.730621,198.673569 330.475159,197.161743 329.245880,195.628876 
	C327.812988,193.842056 326.403015,192.036850 324.983093,190.239609 
z"/>
<path fill="#232323" opacity="1.000000" stroke="none" 
	d="
M499.693939,353.114166 
	C496.464905,348.092133 493.235840,343.070099 490.100189,337.362457 
	C491.916656,336.117493 493.652374,335.593842 495.359253,334.988708 
	C497.024994,334.398193 498.661194,333.724396 500.310364,333.087189 
	C505.814270,338.840759 511.318176,344.594330 516.506104,350.677979 
	C513.227478,349.361572 510.038574,346.124542 507.364197,346.504883 
	C504.550995,346.905029 502.230011,350.765625 499.693939,353.114166 
z"/>
<path fill="#181818" opacity="1.000000" stroke="none" 
	d="
M499.762390,353.480682 
	C502.230011,350.765625 504.550995,346.905029 507.364197,346.504883 
	C510.038574,346.124542 513.227478,349.361572 516.554321,351.016418 
	C518.583923,354.113647 520.249390,357.202576 521.874390,360.649841 
	C521.339417,360.961731 520.742920,361.079193 520.365173,360.844543 
	C512.730713,356.102448 512.674988,356.144531 509.137604,364.848663 
	C508.550598,366.293121 507.477844,367.540192 506.276489,368.937836 
	C503.892517,363.947205 501.861694,358.897186 499.762390,353.480682 
z"/>
<path fill="#353535" opacity="1.000000" stroke="none" 
	d="
M475.129028,331.832458 
	C473.931671,332.271942 472.433502,332.913696 471.261963,332.537720 
	C461.025360,329.252014 450.921783,325.532410 440.618927,322.481049 
	C435.746002,321.037811 430.480164,320.973969 425.481781,319.877441 
	C423.243500,319.386414 421.225098,317.893066 419.046021,316.495850 
	C438.923584,316.655914 458.033264,320.183014 475.129028,331.832458 
z"/>
<path fill="#353535" opacity="1.000000" stroke="none" 
	d="
M369.311218,230.871948 
	C369.449921,229.059601 369.785614,227.111649 370.418365,225.265472 
	C370.952911,223.705734 371.998901,222.320847 372.529938,220.760361 
	C375.145966,213.073242 372.954956,210.268372 365.022217,209.891800 
	C359.724487,209.640320 354.470062,208.476410 349.100647,207.334854 
	C355.889465,206.219254 362.773895,205.489609 370.184082,204.376190 
	C371.151642,203.990128 371.593445,203.987839 372.035217,203.985565 
	C374.652313,210.226974 377.269470,216.468384 379.981567,222.936279 
	C376.451843,225.612823 373.044403,228.196655 369.311218,230.871948 
z"/>
<path fill="#2D2D2D" opacity="1.000000" stroke="none" 
	d="
M437.610565,224.527130 
	C441.340515,224.032425 445.153961,223.887283 449.791077,223.736359 
	C457.051727,229.348480 463.444336,235.019226 469.984009,240.514923 
	C470.768402,241.174103 472.351440,240.882858 473.692291,241.259308 
	C473.882507,242.175613 473.944733,242.864761 474.006958,243.553894 
	C465.254181,245.748917 462.892517,238.284821 458.383575,233.090103 
	C458.046814,234.617493 457.767395,235.884872 457.146515,238.700836 
	C453.494904,234.592438 450.635834,231.375717 447.520569,227.870773 
	C447.244354,229.292130 446.964264,230.733429 446.383667,233.720978 
	C443.056030,230.334076 440.375061,227.605377 437.610565,224.527130 
z"/>
<path fill="#262626" opacity="1.000000" stroke="none" 
	d="
M474.364075,243.655365 
	C473.944733,242.864761 473.882507,242.175613 473.634338,240.896912 
	C470.578583,237.384201 467.708832,234.461044 464.839050,231.537903 
	C465.632629,231.248016 466.622009,230.496841 467.190216,230.737976 
	C474.719330,233.933441 492.374268,253.301117 491.014160,264.466187 
	C488.076355,262.907501 485.306061,261.608063 483.970856,257.231964 
	C482.454498,252.262192 477.935089,248.208679 474.364075,243.655365 
z"/>
<path fill="#353535" opacity="1.000000" stroke="none" 
	d="
M404.562897,229.998077 
	C402.782227,231.408340 400.656769,233.560898 398.308624,233.839966 
	C384.823578,235.442505 374.577606,241.475662 368.645111,254.022766 
	C367.719757,255.979858 366.788086,257.933960 365.501038,259.951019 
	C366.167145,244.193649 379.363159,231.410995 396.190002,230.024200 
	C398.817993,229.807602 401.472839,229.916611 404.562897,229.998077 
z"/>
<path fill="#2D2D2D" opacity="1.000000" stroke="none" 
	d="
M500.148987,332.815399 
	C498.661194,333.724396 497.024994,334.398193 495.359253,334.988708 
	C493.652374,335.593842 491.916656,336.117493 489.994019,337.049988 
	C484.280914,332.562134 478.767334,327.701141 473.098450,322.003510 
	C472.969635,320.775604 472.996094,320.384369 473.022583,319.993103 
	C482.010925,324.176605 490.999268,328.360107 500.148987,332.815399 
z"/>
<path fill="#353535" opacity="1.000000" stroke="none" 
	d="
M391.741150,313.690613 
	C391.084839,314.354370 390.005798,315.326630 389.244293,315.121277 
	C384.713989,313.899475 380.257080,312.405396 375.392303,310.993805 
	C374.543457,310.668701 374.077881,310.352539 373.267212,309.656677 
	C371.619751,308.511139 370.317383,307.745331 369.015015,306.979492 
	C369.015015,306.979492 369.002441,307.000000 368.967865,306.648193 
	C366.298370,303.851440 363.663483,301.406464 361.028595,298.961487 
	C361.028595,298.961487 361.023438,298.478882 360.976746,297.890350 
	C359.295685,295.191315 357.661377,293.080811 356.027039,290.970306 
	C356.021759,290.532715 356.016479,290.095093 356.004395,289.329346 
	C355.517029,286.147583 355.036499,283.293945 354.832092,280.201172 
	C361.529449,297.311310 373.481964,308.656372 391.741150,313.690613 
z"/>
<path fill="#232323" opacity="1.000000" stroke="none" 
	d="
M330.221710,166.427032 
	C331.946167,165.800217 334.147156,164.675919 335.946625,165.132874 
	C345.940521,167.670746 355.894562,170.411209 365.719482,173.531723 
	C367.758026,174.179199 369.193817,176.724533 370.933899,178.749725 
	C357.477875,174.956024 343.995392,170.807816 330.221710,166.427032 
z"/>
<path fill="#464646" opacity="1.000000" stroke="none" 
	d="
M367.952820,191.626343 
	C367.631409,192.027527 367.332550,192.044800 366.584991,192.078918 
	C365.195679,188.527588 363.234711,186.671082 359.193542,186.564941 
	C354.055634,186.429993 348.937805,185.529709 343.383911,184.833847 
	C343.962860,182.728607 344.969177,180.748917 345.982513,178.412842 
	C352.090912,180.092697 358.381317,181.719330 364.186310,184.397903 
	C366.095581,185.278900 366.748169,188.883331 367.952820,191.626343 
z"/>
<path fill="#353535" opacity="1.000000" stroke="none" 
	d="
M463.950012,254.603683 
	C459.326813,251.494446 454.721771,247.982315 450.112183,244.107758 
	C453.848938,245.333694 457.808716,246.567383 461.229919,248.675247 
	C462.714050,249.589661 463.089233,252.303986 463.950012,254.603683 
z"/>
<path fill="#2D2D2D" opacity="1.000000" stroke="none" 
	d="
M382.916321,213.412750 
	C388.482544,214.832855 394.174164,216.578751 399.931519,218.684250 
	C393.597321,219.666229 387.597229,219.010727 382.916321,213.412750 
z"/>
<path fill="#2D2D2D" opacity="1.000000" stroke="none" 
	d="
M428.224976,224.327301 
	C430.266724,223.704788 432.557465,223.338669 435.257080,222.973969 
	C435.665955,224.236359 435.665955,225.497330 435.665955,227.148575 
	C433.001495,226.198349 430.737701,225.391022 428.224976,224.327301 
z"/>
<path fill="#353535" opacity="1.000000" stroke="none" 
	d="
M414.628296,315.790222 
	C412.418518,319.367523 409.783539,318.653748 407.042847,315.710205 
	C409.396851,315.447815 411.829590,315.538818 414.628296,315.790222 
z"/>
<path fill="#353535" opacity="1.000000" stroke="none" 
	d="
M368.074097,280.345581 
	C369.697906,282.481445 371.327240,284.969482 372.927246,287.845886 
	C371.291809,285.722076 369.685730,283.209930 368.074097,280.345581 
z"/>
<path fill="#464646" opacity="1.000000" stroke="none" 
	d="
M372.043884,203.645813 
	C371.593445,203.987839 371.151642,203.990128 370.378571,203.998627 
	C369.358826,202.261536 368.670410,200.518234 367.893646,198.432739 
	C368.152557,198.055328 368.499756,198.020081 369.369263,197.948853 
	C370.611908,199.710602 371.332245,201.508347 372.043884,203.645813 
z"/>
<path fill="#464646" opacity="1.000000" stroke="none" 
	d="
M472.775726,319.776062 
	C472.996094,320.384369 472.969635,320.775604 472.886414,321.752380 
	C470.937622,321.419312 469.045593,320.500793 467.153534,319.582245 
	C467.222626,319.318054 467.291718,319.053864 467.360809,318.789673 
	C469.083496,319.046112 470.806183,319.302582 472.775726,319.776062 
z"/>
<path fill="#353535" opacity="1.000000" stroke="none" 
	d="
M365.250793,271.333191 
	C366.021332,272.841583 366.745178,274.707001 367.215027,276.793121 
	C366.375366,275.239288 365.789734,273.464752 365.250793,271.333191 
z"/>
<path fill="#262626" opacity="1.000000" stroke="none" 
	d="
M373.751373,190.380432 
	C376.879272,190.765045 376.204437,192.686798 374.966431,194.914337 
	C374.330750,193.679993 374.006195,192.218231 373.751373,190.380432 
z"/>
<path fill="#141414" opacity="1.000000" stroke="none" 
	d="
M502.006165,377.365479 
	C502.536530,377.271698 503.073059,377.543365 503.893860,377.913330 
	C504.496246,378.791534 504.814331,379.571411 505.097504,380.674622 
	C504.045868,379.908966 503.029114,378.819977 502.006165,377.365479 
z"/>
<path fill="#353535" opacity="1.000000" stroke="none" 
	d="
M354.781250,277.745056 
	C354.380951,277.428741 354.035980,276.830383 353.924957,276.088745 
	C354.384796,276.451324 354.610687,276.957153 354.781250,277.745056 
z"/>
<path fill="#353535" opacity="1.000000" stroke="none" 
	d="
M396.841827,314.643036 
	C396.390808,314.857056 395.731079,314.877838 395.018127,314.630127 
	C395.520966,314.391022 396.077057,314.420410 396.841827,314.643036 
z"/>
<path fill="#464646" opacity="1.000000" stroke="none" 
	d="
M457.621643,237.575958 
	C457.355621,237.548752 457.308563,237.349609 457.261536,237.150482 
	C457.454590,237.235001 457.647614,237.319519 457.621643,237.575958 
z"/>
<path fill="#1B1B1B" opacity="1.000000" stroke="none" 
	d="
M265.511047,226.754654 
	C269.301880,226.746506 272.728027,226.959976 276.122375,226.721329 
	C277.864044,226.598877 279.548920,225.668976 281.642639,225.064468 
	C280.602264,226.284058 279.381561,228.133728 277.721375,228.703949 
	C268.708771,231.799515 259.587677,234.579193 250.251526,237.728241 
	C247.908218,238.626480 245.817307,239.264099 243.213882,239.654053 
	C242.095718,238.502151 241.490097,237.597916 240.884460,236.693695 
	C248.967377,233.392136 257.050293,230.090576 265.511047,226.754654 
z"/>
<path fill="#141414" opacity="1.000000" stroke="none" 
	d="
M436.085999,326.367859 
	C449.057495,328.188202 461.517578,332.013092 472.838501,339.699463 
	C468.154388,337.996765 463.400757,335.719086 458.440857,334.056854 
	C451.589081,331.760559 444.577179,329.943634 437.649902,327.867950 
	C437.094238,327.701447 436.662598,327.121216 436.085999,326.367859 
z"/>
<path fill="#1B1B1B" opacity="1.000000" stroke="none" 
	d="
M308.000000,218.998169 
	C313.824127,217.817108 319.648285,216.636047 325.508789,215.972778 
	C324.360382,217.323700 323.175568,218.156830 321.990784,218.989960 
	C321.243134,218.991150 320.495453,218.992340 319.181183,218.757294 
	C317.743042,218.680496 316.871521,218.839935 316.000000,218.999390 
	C315.251007,219.000702 314.501984,219.002014 313.083527,219.029099 
	C311.942719,219.369919 311.471344,219.684967 311.000000,220.000000 
	C310.249969,220.002075 309.499969,220.004166 308.374908,219.755646 
	C307.999908,219.336075 307.999969,219.167130 308.000000,218.998169 
z"/>
<path fill="#141414" opacity="1.000000" stroke="none" 
	d="
M355.063690,215.349014 
	C362.537567,216.309174 364.458191,221.116760 359.369995,226.929352 
	C361.309540,222.003662 359.533356,218.399536 355.063690,215.349014 
z"/>
<path fill="#1B1B1B" opacity="1.000000" stroke="none" 
	d="
M288.372681,224.934479 
	C292.066193,223.326187 296.144958,221.675751 300.559204,220.339050 
	C299.929810,221.434052 298.964905,222.215332 298.000000,222.996628 
	C294.919281,223.628540 291.838593,224.260422 288.372681,224.934479 
z"/>
<path fill="#141414" opacity="1.000000" stroke="none" 
	d="
M322.391937,218.982620 
	C323.175568,218.156830 324.360382,217.323700 325.776001,216.234634 
	C326.446350,215.981339 326.885864,215.983963 327.654785,215.983658 
	C328.843933,216.151810 329.703644,216.322906 330.782227,216.743744 
	C328.265106,217.654099 325.529114,218.314697 322.391937,218.982620 
z"/>
<path fill="#141414" opacity="1.000000" stroke="none" 
	d="
M298.226410,223.231812 
	C298.964905,222.215332 299.929810,221.434052 300.952332,220.333389 
	C301.452148,220.011490 301.894348,220.008957 302.785583,220.217773 
	C303.437500,220.692413 303.693726,220.884583 304.003296,221.005661 
	C302.153137,221.826111 300.302979,222.646576 298.226410,223.231812 
z"/>
<path fill="#141414" opacity="1.000000" stroke="none" 
	d="
M354.659912,236.058960 
	C353.891418,237.959610 352.785278,239.920807 351.341736,241.943298 
	C352.110291,240.042892 353.216278,238.081192 354.659912,236.058960 
z"/>
<path fill="#141414" opacity="1.000000" stroke="none" 
	d="
M361.161713,306.300781 
	C362.564117,306.793854 364.123505,307.592590 365.840820,308.696289 
	C364.438751,308.202972 362.878693,307.404724 361.161713,306.300781 
z"/>
<path fill="#141414" opacity="1.000000" stroke="none" 
	d="
M347.642395,255.073929 
	C347.565552,256.280945 347.137207,257.565552 346.357483,258.928162 
	C346.434357,257.721313 346.862610,256.436401 347.642395,255.073929 
z"/>
<path fill="#141414" opacity="1.000000" stroke="none" 
	d="
M403.243622,323.256958 
	C404.290649,323.106110 405.581268,323.215271 406.939941,323.657959 
	C405.834381,323.833282 404.660797,323.675110 403.243622,323.256958 
z"/>
<path fill="#141414" opacity="1.000000" stroke="none" 
	d="
M373.057281,314.333740 
	C374.296021,314.776123 375.592072,315.552216 376.946960,316.661316 
	C375.708771,316.218658 374.411652,315.443085 373.057281,314.333740 
z"/>
<path fill="#141414" opacity="1.000000" stroke="none" 
	d="
M477.040649,343.336853 
	C477.973267,343.773865 478.946564,344.548492 479.961151,345.660339 
	C479.028748,345.223175 478.055023,344.448822 477.040649,343.336853 
z"/>
<path fill="#141414" opacity="1.000000" stroke="none" 
	d="
M345.767639,262.191406 
	C346.162872,262.871826 346.319794,263.743713 346.240051,264.807800 
	C345.845367,264.127625 345.687347,263.255249 345.767639,262.191406 
z"/>
<path fill="#141414" opacity="1.000000" stroke="none" 
	d="
M316.192200,219.236832 
	C316.871521,218.839935 317.743042,218.680496 318.807312,218.757172 
	C318.128204,219.153625 317.256317,219.313950 316.192200,219.236832 
z"/>
<path fill="#141414" opacity="1.000000" stroke="none" 
	d="
M307.667847,218.999695 
	C307.999969,219.167130 307.999908,219.336075 307.999908,219.758621 
	C307.452087,220.482971 306.904236,220.953735 306.178284,220.880402 
	C306.002533,219.893494 306.004822,219.450714 306.007141,219.007935 
	C306.450012,219.005707 306.892853,219.003479 307.667847,218.999695 
z"/>
<path fill="#1B1B1B" opacity="1.000000" stroke="none" 
	d="
M305.670593,219.008347 
	C306.004822,219.450714 306.002533,219.893494 306.000122,220.668442 
	C305.556274,221.001114 305.112518,221.001602 304.336060,221.003876 
	C303.693726,220.884583 303.437500,220.692413 303.117310,220.216919 
	C303.778015,219.672745 304.556030,219.340759 305.670593,219.008347 
z"/>
<path fill="#141414" opacity="1.000000" stroke="none" 
	d="
M343.329285,215.992126 
	C343.856689,215.500900 344.720551,215.009109 345.792206,214.757599 
	C345.221924,215.329117 344.443817,215.660355 343.329285,215.992126 
z"/>
<path fill="#141414" opacity="1.000000" stroke="none" 
	d="
M353.034607,295.314972 
	C353.665558,295.763031 354.326599,296.530792 354.995056,297.648376 
	C354.356537,297.210327 353.710602,296.422485 353.034607,295.314972 
z"/>
<path fill="#141414" opacity="1.000000" stroke="none" 
	d="
M359.033264,303.317017 
	C359.664581,303.763733 360.326752,304.529938 360.996887,305.645691 
	C360.357971,305.208984 359.711060,304.422729 359.033264,303.317017 
z"/>
<path fill="#141414" opacity="1.000000" stroke="none" 
	d="
M487.006104,353.351135 
	C487.644989,353.788025 488.291199,354.574799 488.968719,355.680786 
	C488.337830,355.233673 487.675659,354.467346 487.006104,353.351135 
z"/>
<path fill="#141414" opacity="1.000000" stroke="none" 
	d="
M483.051086,349.313324 
	C483.635651,349.454468 484.268890,349.911407 484.951660,350.683563 
	C484.367401,350.542236 483.733582,350.085663 483.051086,349.313324 
z"/>
<path fill="#141414" opacity="1.000000" stroke="none" 
	d="
M490.051056,358.312469 
	C490.635529,358.454193 491.268585,358.911682 491.950806,359.684570 
	C491.366547,359.542755 490.733124,359.085480 490.051056,358.312469 
z"/>
<path fill="#141414" opacity="1.000000" stroke="none" 
	d="
M355.051117,298.313232 
	C355.635529,298.454773 356.268585,298.911957 356.950836,299.684570 
	C356.366608,299.542969 355.733185,299.085938 355.051117,298.313232 
z"/>
<path fill="#141414" opacity="1.000000" stroke="none" 
	d="
M474.050446,341.314514 
	C474.635284,341.454346 475.269348,341.909943 475.954132,342.680359 
	C475.369812,342.540253 474.734741,342.085266 474.050446,341.314514 
z"/>
<path fill="#141414" opacity="1.000000" stroke="none" 
	d="
M349.682129,247.048492 
	C349.544037,247.633514 349.090546,248.268860 348.322540,248.956131 
	C348.460938,248.371643 348.913818,247.735229 349.682129,247.048492 
z"/>
<path fill="#1B1B1B" opacity="1.000000" stroke="none" 
	d="
M284.153229,225.225998 
	C284.561768,224.864975 285.125641,224.714066 285.843811,224.773651 
	C285.434906,225.134811 284.871735,225.285461 284.153229,225.225998 
z"/>
<path fill="#141414" opacity="1.000000" stroke="none" 
	d="
M311.178467,220.212158 
	C311.471344,219.684967 311.942719,219.369919 312.709045,219.030487 
	C312.454987,219.478836 311.905945,219.951584 311.178467,220.212158 
z"/>
<path fill="#141414" opacity="1.000000" stroke="none" 
	d="
M431.033630,325.288635 
	C431.545898,325.179047 432.095367,325.353180 432.822449,325.761841 
	C432.356934,325.855042 431.713898,325.713745 431.033630,325.288635 
z"/>
<path fill="#141414" opacity="1.000000" stroke="none" 
	d="
M345.789978,271.152344 
	C346.145172,271.564758 346.287292,272.129486 346.217957,272.847168 
	C345.863251,272.434937 345.720062,271.869812 345.789978,271.152344 
z"/>
<path fill="#141414" opacity="1.000000" stroke="none" 
	d="
M346.789703,278.178284 
	C347.316711,278.471313 347.631287,278.942627 347.970490,279.708679 
	C347.522491,279.454468 347.049866,278.905518 346.789703,278.178284 
z"/>
<path fill="#141414" opacity="1.000000" stroke="none" 
	d="
M349.052551,287.310364 
	C349.636871,287.453339 350.268768,287.912231 350.948730,288.686798 
	C350.364563,288.543732 349.732361,288.084991 349.052551,287.310364 
z"/>
<path fill="#141414" opacity="1.000000" stroke="none" 
	d="
M335.287354,216.967682 
	C335.541687,216.518494 336.091858,216.045700 336.821014,215.784332 
	C336.527710,216.311859 336.055450,216.627960 335.287354,216.967682 
z"/>
<path fill="#141414" opacity="1.000000" stroke="none" 
	d="
M358.684418,229.049637 
	C358.544800,229.634399 358.089600,230.268814 357.319489,230.954010 
	C357.459320,230.369644 357.914062,229.734467 358.684418,229.049637 
z"/>
<path fill="#141414" opacity="1.000000" stroke="none" 
	d="
M389.046875,320.321472 
	C389.631683,320.458618 390.267761,320.910706 390.955994,321.677307 
	C390.371460,321.540009 389.734802,321.088226 389.046875,320.321472 
z"/>
<path fill="#F3F3F3" opacity="1.000000" stroke="none" 
	d="
M464.522491,231.383423 
	C467.708832,234.461044 470.578583,237.384201 473.506348,240.669739 
	C472.351440,240.882858 470.768402,241.174103 469.984009,240.514923 
	C463.444336,235.019226 457.051727,229.348480 450.312012,223.629120 
	C445.826508,221.004822 441.643677,218.481979 437.173645,215.790329 
	C435.402039,214.471680 433.917633,213.321838 432.721283,212.013947 
	C435.714172,213.025909 438.419037,214.195938 441.473511,215.480087 
	C449.284058,220.805801 456.744995,226.017365 464.522491,231.383423 
z"/>
<path fill="#1B1B1B" opacity="1.000000" stroke="none" 
	d="
M220.405670,202.933258 
	C219.395966,201.755814 218.771042,200.524902 218.014038,198.965942 
	C234.629929,196.369736 251.377914,194.101562 268.650299,192.277344 
	C269.994324,193.150726 270.797974,193.917862 271.636047,193.957581 
	C280.389679,194.372375 289.150421,194.634750 297.905396,195.025085 
	C300.198822,195.127335 302.569641,195.216751 304.746429,195.853638 
	C309.243134,197.169312 309.637604,198.925751 306.912720,202.617401 
	C305.804565,204.118759 305.117401,205.930878 304.238708,207.601624 
	C289.390411,212.994415 274.542114,218.387207 259.344421,223.441238 
	C260.398560,221.366379 261.560760,219.335648 263.251892,217.950806 
	C267.864777,214.173325 272.906250,210.903259 277.386627,206.984741 
	C281.290619,203.570343 280.488159,201.456451 275.574341,199.909286 
	C265.120026,196.617645 254.615540,199.417343 244.141403,199.527435 
	C241.088501,199.559509 238.044922,200.479797 234.997070,200.992950 
	C234.247910,200.994675 233.498764,200.996399 231.989594,200.998352 
	C229.818451,201.329239 228.407303,201.659897 226.996155,201.990540 
	C224.927597,202.286957 222.859024,202.583359 220.405670,202.933258 
z"/>
<path fill="#0F0F0F" opacity="1.000000" stroke="none" 
	d="
M235.301224,201.274231 
	C238.044922,200.479797 241.088501,199.559509 244.141403,199.527435 
	C254.615540,199.417343 265.120026,196.617645 275.574341,199.909286 
	C280.488159,201.456451 281.290619,203.570343 277.386627,206.984741 
	C272.906250,210.903259 267.864777,214.173325 263.251892,217.950806 
	C261.560760,219.335648 260.398560,221.366379 258.990479,223.458191 
	C252.913162,226.900009 246.840408,229.986115 240.416595,233.121735 
	C240.092392,227.109421 245.049545,224.524719 248.762527,221.205170 
	C252.810471,217.586151 257.475983,214.643646 261.418427,210.925079 
	C265.102783,207.449966 264.566437,205.282074 259.595703,204.153503 
	C254.176544,202.923096 248.539017,202.631516 242.986816,202.020554 
	C240.538925,201.751190 238.066605,201.703735 235.301224,201.274231 
z"/>
<path fill="#262626" opacity="1.000000" stroke="none" 
	d="
M304.645386,207.590363 
	C305.117401,205.930878 305.804565,204.118759 306.912720,202.617401 
	C309.637604,198.925751 309.243134,197.169312 304.746429,195.853638 
	C302.569641,195.216751 300.198822,195.127335 297.905396,195.025085 
	C289.150421,194.634750 280.389679,194.372375 271.636047,193.957581 
	C270.797974,193.917862 269.994324,193.150726 269.088165,192.347534 
	C284.372345,191.279572 299.741852,190.555328 315.114899,189.917206 
	C318.090210,189.793716 321.079437,190.006638 324.522675,190.151978 
	C326.403015,192.036850 327.812988,193.842056 329.245880,195.628876 
	C330.475159,197.161743 331.730621,198.673569 332.983459,200.558868 
	C323.678955,203.141724 314.365509,205.360428 304.645386,207.590363 
z"/>
<path fill="#141414" opacity="1.000000" stroke="none" 
	d="
M240.517853,236.749756 
	C241.490097,237.597916 242.095718,238.502151 242.851059,239.698029 
	C240.046173,240.552094 237.091583,241.114532 234.070831,241.048050 
	C234.006729,240.039001 234.008804,239.658875 234.010880,239.278763 
	C234.179123,239.244919 234.347366,239.211075 234.950607,239.022644 
	C235.635834,238.741852 235.833984,238.559174 235.980072,238.320007 
	C237.370453,237.815277 238.760834,237.310547 240.517853,236.749756 
z"/>
<path fill="#1B1B1B" opacity="1.000000" stroke="none" 
	d="
M233.690277,239.166382 
	C234.008804,239.658875 234.006729,240.039001 234.002014,240.703995 
	C233.354584,240.531036 232.709778,240.073212 232.044647,239.287628 
	C232.472794,238.991257 232.921234,239.022629 233.690277,239.166382 
z"/>
<path fill="#1B1B1B" opacity="1.000000" stroke="none" 
	d="
M235.730927,238.211243 
	C235.833984,238.559174 235.635834,238.741852 235.192230,238.933853 
	C235.159836,238.700577 235.320816,238.401520 235.730927,238.211243 
z"/>
<path fill="#0F0F0F" opacity="1.000000" stroke="none" 
	d="
M227.243805,202.249817 
	C228.407303,201.659897 229.818451,201.329239 231.615021,201.000824 
	C230.497437,201.505066 228.994461,202.007080 227.243805,202.249817 
z"/>
<path fill="#1B1B1B" opacity="1.000000" stroke="none" 
	d="
M483.843140,273.700012 
	C478.843323,271.895386 473.646545,269.878601 468.563446,267.607422 
	C467.777954,267.256439 467.513794,265.738708 466.997681,264.391144 
	C469.110962,264.920990 471.235168,265.820221 473.728394,267.177582 
	C474.733154,268.086273 475.368896,268.536865 476.004639,268.987427 
	C476.750671,268.993286 477.496674,268.999115 478.615417,269.007935 
	C480.553192,270.475433 482.118317,271.939941 483.843140,273.700012 
z"/>
<path fill="#232323" opacity="1.000000" stroke="none" 
	d="
M475.952576,268.673279 
	C475.368896,268.536865 474.733154,268.086273 474.043640,267.321838 
	C474.626740,267.458374 475.263611,267.908752 475.952576,268.673279 
z"/>
<path fill="#232323" opacity="1.000000" stroke="none" 
	d="
M361.058228,299.308899 
	C363.663483,301.406464 366.298370,303.851440 368.976929,306.637756 
	C366.376343,304.538177 363.732117,302.097260 361.058228,299.308899 
z"/>
<path fill="#232323" opacity="1.000000" stroke="none" 
	d="
M356.024231,291.339600 
	C357.661377,293.080811 359.295685,295.191315 360.968323,297.649170 
	C359.344879,295.900635 357.683136,293.804749 356.024231,291.339600 
z"/>
<path fill="#232323" opacity="1.000000" stroke="none" 
	d="
M369.157715,307.277710 
	C370.317383,307.745331 371.619751,308.511139 372.975708,309.627930 
	C371.786346,309.177917 370.543365,308.376923 369.157715,307.277710 
z"/>
</svg>