<svg version="1.1" id="Layer_1" xmlns="http://www.w3.org/2000/svg" xmlns:xlink="http://www.w3.org/1999/xlink" x="0px" y="0px"
	 width="100%" viewBox="0 0 3840 2160" enable-background="new 0 0 3840 2160" xml:space="preserve">
<path fill="#101010" opacity="1.000000" stroke="none" 
	d="
M2290.000000,2162.000000 
	C1526.666748,2162.000000 764.333618,2162.000000 2.000307,2162.000000 
	C2.000205,1442.000244 2.000205,722.000549 2.000102,2.000597 
	C1281.999512,2.000398 2561.999023,2.000398 3841.999023,2.000199 
	C3841.999268,721.999329 3841.999268,1441.998657 3841.999512,2161.999023 
	C3325.000000,2162.000000 2808.000000,2162.000000 2290.000000,2162.000000 
M2101.842773,1385.835205 
	C2121.897949,1385.713501 2141.953125,1385.591797 2163.850098,1385.835205 
	C2185.236572,1385.714355 2206.623291,1385.593506 2229.851318,1385.837891 
	C2249.904053,1385.715332 2269.956787,1385.592773 2291.850830,1385.836426 
	C2310.570312,1385.714355 2329.289795,1385.592163 2349.846191,1385.841187 
	C2353.803711,1385.935547 2357.760742,1386.087524 2361.718750,1386.114014 
	C2378.285156,1386.225098 2394.544434,1384.352539 2411.728760,1378.425293 
	C2434.995605,1371.367432 2456.051025,1360.360596 2475.126221,1343.157471 
	C2505.532959,1316.581787 2524.193848,1282.532715 2537.896240,1245.203857 
	C2548.697266,1215.779175 2553.612549,1185.038574 2557.439697,1154.254761 
	C2562.255371,1115.516846 2562.944092,1076.494873 2560.281250,1036.976929 
	C2560.104004,1036.163330 2559.926758,1035.349854 2559.882568,1032.716064 
	C2558.595459,1022.252380 2557.220459,1011.798584 2556.046143,1001.322266 
	C2554.913086,991.209717 2554.706787,980.937927 2552.825928,970.975403 
	C2548.295898,946.984070 2542.920166,923.313538 2534.569824,900.112244 
	C2525.238281,874.184814 2513.323242,850.095703 2496.486572,828.482605 
	C2490.625244,820.958435 2483.375977,814.515625 2476.127197,806.363220 
	C2457.006836,789.034302 2435.482422,776.146301 2408.508545,769.915833 
	C2388.558838,764.735535 2368.260498,766.287170 2346.174561,766.405884 
	C2327.455322,766.531921 2308.736328,766.657959 2288.246338,766.406311 
	C2283.063232,766.406311 2277.880371,766.406311 2272.078369,766.406311 
	C2272.078369,771.440918 2272.078369,775.067566 2272.078369,778.694153 
	C2272.076416,825.332825 2272.117676,871.971619 2272.055420,918.610229 
	C2272.021973,943.751526 2267.346924,968.112183 2259.141113,991.818726 
	C2251.755615,1013.155945 2239.961426,1031.953491 2224.478271,1049.925659 
	C2211.653076,1063.279297 2197.014404,1074.146973 2180.209473,1081.986572 
	C2174.201904,1084.789185 2168.069336,1087.324219 2160.415527,1089.959351 
	C2140.792480,1096.408569 2120.376953,1098.100464 2098.158691,1099.647339 
	C2075.439453,1099.789917 2052.720459,1099.932373 2028.160645,1099.691162 
	C2005.442261,1099.819336 1982.723755,1099.947388 1958.164185,1099.691284 
	C1936.776245,1099.818726 1915.388184,1099.946045 1892.159302,1099.692261 
	C1872.106201,1099.819336 1852.053223,1099.946411 1830.158936,1099.692993 
	C1811.438843,1099.958862 1792.718750,1100.224609 1772.331543,1100.226562 
	C1768.798462,1100.812256 1765.285400,1101.605469 1761.729004,1101.949463 
	C1741.488281,1103.906372 1722.279419,1109.441528 1702.619629,1118.437134 
	C1675.007568,1131.168823 1652.675293,1149.857178 1636.715942,1176.014771 
	C1623.242920,1198.097290 1618.130493,1222.796997 1614.273071,1247.743896 
	C1612.820923,1257.135132 1614.370239,1266.973511 1614.363525,1276.607910 
	C1614.299316,1369.161987 1614.027588,1461.716553 1614.326782,1554.269409 
	C1614.361816,1565.077637 1616.131836,1576.307373 1619.413818,1586.603394 
	C1633.172363,1629.765381 1664.275146,1656.968140 1705.071411,1676.695923 
	C1727.095703,1687.277344 1749.862549,1695.661621 1775.314697,1700.774048 
	C1793.968506,1705.663452 1813.010010,1708.535645 1833.658447,1711.941040 
	C1836.444702,1711.984619 1839.231079,1712.028198 1842.667603,1712.701904 
	C1843.768188,1712.578857 1844.868896,1712.455933 1847.669922,1712.293823 
	C1863.119995,1713.214844 1878.570068,1714.135986 1895.838013,1715.530396 
	C1918.552856,1715.321411 1941.267700,1715.112305 1965.590942,1715.269287 
	C1972.432007,1714.799805 1979.272949,1714.330322 1987.025391,1714.224487 
	C1988.623779,1714.014404 1990.222046,1713.804321 1993.514404,1713.778442 
	C1999.704956,1713.135986 2005.895508,1712.493530 2012.802246,1712.205811 
	C2013.818359,1712.004028 2014.834351,1711.802368 2017.536011,1711.743286 
	C2026.356079,1710.456299 2035.176025,1709.169312 2045.725708,1708.080078 
	C2054.163574,1706.696533 2062.664551,1705.615723 2071.026611,1703.870117 
	C2091.802979,1699.532593 2112.623291,1695.265015 2133.626953,1686.281494 
	C2140.533936,1683.369629 2147.587158,1680.759521 2154.321045,1677.490967 
	C2176.749023,1666.604004 2197.014404,1652.810303 2212.271973,1632.648560 
	C2224.246338,1616.824707 2231.634766,1599.174316 2231.623291,1579.107422 
	C2231.596436,1533.114746 2231.248535,1487.122437 2231.034912,1441.129883 
	C2231.018555,1437.583740 2231.032715,1434.037231 2231.032715,1430.135254 
	C2199.189941,1430.135254 2168.590576,1430.135254 2136.150146,1429.766724 
	C2107.430908,1429.890381 2078.711426,1430.014160 2048.149902,1429.772095 
	C2020.100342,1429.894409 1992.050781,1430.016846 1962.157837,1429.773315 
	C1948.977173,1429.773315 1935.796509,1429.773315 1922.210571,1429.773315 
	C1922.210571,1415.029663 1922.210571,1401.505493 1922.875732,1387.531006 
	C1923.298096,1387.194702 1923.661377,1386.803467 1925.810669,1385.993896 
	C1937.208618,1385.817993 1948.606567,1385.641968 1961.846680,1385.831055 
	C1984.564819,1385.710205 2007.282959,1385.589355 2031.844238,1385.832886 
	C2054.562744,1385.711914 2077.281006,1385.590820 2101.842773,1385.835205 
M1614.032471,585.835205 
	C1614.109253,634.184143 1614.186157,682.533020 1614.264160,731.609436 
	C1619.318604,731.609436 1622.920776,731.609253 1626.522949,731.609497 
	C1664.725708,731.612183 1702.928467,731.635986 1741.131226,731.596741 
	C1747.428833,731.590271 1753.726074,731.307190 1761.859985,731.531616 
	C1795.655640,731.557739 1829.451172,731.620911 1863.246826,731.587463 
	C1873.504028,731.577332 1883.761108,731.300049 1895.848511,731.531555 
	C1904.992065,731.645996 1914.135620,731.760437 1923.218750,731.874084 
	C1923.218750,746.832520 1923.218750,760.574219 1923.218750,774.818115 
	C1909.723389,775.163574 1896.860962,775.492737 1882.178101,775.338196 
	C1856.696777,775.301758 1831.215454,775.211121 1805.734253,775.257446 
	C1796.488647,775.274231 1787.243652,775.618164 1776.177246,775.330750 
	C1747.710205,775.297607 1719.243286,775.222229 1690.776245,775.259521 
	C1683.183350,775.269409 1675.590942,775.624023 1666.176514,775.341614 
	C1644.676392,775.304382 1623.176147,775.197021 1601.676392,775.258789 
	C1590.450195,775.291077 1579.224976,775.620911 1566.177124,775.338440 
	C1540.177002,775.390869 1514.176758,775.443298 1486.775269,774.831299 
	C1474.321289,775.963196 1461.687500,776.141235 1449.454834,778.447083 
	C1430.356201,782.046936 1412.096924,788.495605 1394.548950,800.043884 
	C1359.129028,821.505310 1334.983154,852.700195 1318.116211,889.825378 
	C1298.569946,932.847656 1289.260620,978.389832 1285.963013,1025.363770 
	C1283.418457,1061.611450 1283.353516,1097.826172 1285.376709,1134.757080 
	C1285.603516,1135.819336 1285.830200,1136.881470 1286.201660,1139.639648 
	C1289.551270,1178.797363 1295.589844,1217.462036 1308.230347,1254.820190 
	C1320.513672,1291.122803 1337.656128,1324.736572 1365.967163,1351.334351 
	C1375.049683,1359.867188 1385.949097,1366.466064 1396.864014,1375.054077 
	C1400.338623,1376.930786 1403.774170,1378.884033 1407.293945,1380.671875 
	C1432.791870,1393.623413 1460.015869,1396.091797 1489.843506,1394.255127 
	C1515.895874,1394.131958 1541.948242,1394.008911 1569.663208,1394.218872 
	C1570.862061,1393.367798 1572.872559,1392.690063 1573.098389,1391.631348 
	C1573.643555,1389.077637 1573.394897,1386.345947 1573.395508,1383.686035 
	C1573.404785,1337.093506 1573.380005,1290.501099 1573.417969,1243.908569 
	C1573.430298,1228.733154 1572.312744,1213.287720 1576.456665,1198.603638 
	C1581.341797,1181.292603 1586.129028,1164.038940 1595.073242,1147.860962 
	C1612.241943,1116.807251 1635.192627,1092.602295 1667.665771,1077.815186 
	C1668.535400,1077.419067 1669.245850,1076.673096 1671.540527,1075.998413 
	C1696.121094,1066.202881 1721.708374,1061.834229 1748.099976,1061.697998 
	C1758.066162,1061.646484 1768.031128,1061.408447 1779.839478,1061.623291 
	C1791.418579,1061.646240 1802.998047,1061.729980 1814.576904,1061.679077 
	C1837.723022,1061.577148 1860.868774,1061.401489 1885.854736,1061.624268 
	C1900.413452,1061.647217 1914.972412,1061.735718 1929.530884,1061.678101 
	C1951.025757,1061.592896 1972.520264,1061.403687 1995.854980,1061.626709 
	C2016.808472,1061.643188 2037.801025,1062.448975 2058.702148,1061.411987 
	C2073.867676,1060.659424 2088.911865,1057.466797 2105.510986,1055.421021 
	C2113.771729,1052.887451 2122.204590,1050.807861 2130.265137,1047.746582 
	C2182.743408,1027.815430 2216.196045,991.076782 2226.798096,935.429810 
	C2229.750000,919.934204 2230.472168,903.829651 2230.533691,887.997925 
	C2230.875488,800.100037 2230.690430,712.200134 2230.711182,624.300964 
	C2230.713135,615.993958 2231.519287,607.637451 2230.872803,599.388489 
	C2228.181641,565.037537 2212.013916,537.481873 2186.843994,514.797729 
	C2167.306396,497.189819 2144.599609,484.773193 2120.138428,475.509247 
	C2115.043701,473.579773 2109.484619,472.875519 2103.677734,470.202240 
	C2097.510986,468.102448 2091.435547,465.666351 2085.161621,463.959991 
	C2055.278809,455.832458 2024.777466,451.163330 1993.338135,447.546112 
	C1992.233398,447.654175 1991.128662,447.762207 1988.322144,447.833313 
	C1980.875122,447.260681 1973.428101,446.688019 1964.955688,445.518158 
	C1962.643677,445.636047 1960.331665,445.753967 1956.142578,445.868530 
	C1935.428345,445.910797 1914.714233,445.953094 1892.160156,445.610748 
	C1876.102051,446.430817 1860.043823,447.250885 1843.251831,447.655945 
	C1842.185913,447.867004 1841.120117,448.078064 1838.422485,448.229492 
	C1833.616821,448.806854 1828.811035,449.384216 1823.254761,449.566254 
	C1822.185669,449.802277 1821.116455,450.038300 1818.424438,450.245422 
	C1813.617798,451.009369 1808.811035,451.773315 1802.367554,452.307922 
	C1794.961060,453.529388 1787.516968,454.559448 1780.155396,456.008972 
	C1759.757812,460.025299 1739.322876,463.949707 1718.524414,472.094666 
	C1704.029785,478.744293 1689.170532,484.712891 1675.136597,492.223358 
	C1659.164917,500.771027 1645.386719,512.441223 1634.234009,526.882507 
	C1622.593750,541.955017 1614.761353,558.600586 1613.639771,578.947998 
	C1613.805420,580.617981 1613.970947,582.287903 1614.032471,585.835205 
z"/>
<path fill="#8ED6EE" opacity="1.000000" stroke="none" 
	d="
M2104.139648,471.606567 
	C2109.484619,472.875519 2115.043701,473.579773 2120.138428,475.509247 
	C2144.599609,484.773193 2167.306396,497.189819 2186.843994,514.797729 
	C2212.013916,537.481873 2228.181641,565.037537 2230.872803,599.388489 
	C2231.519287,607.637451 2230.713135,615.993958 2230.711182,624.300964 
	C2230.690430,712.200134 2230.875488,800.100037 2230.533691,887.997925 
	C2230.472168,903.829651 2229.750000,919.934204 2226.798096,935.429810 
	C2216.196045,991.076782 2182.743408,1027.815430 2130.265137,1047.746582 
	C2122.204590,1050.807861 2113.771729,1052.887451 2104.692383,1054.592285 
	C2103.249268,1048.168823 2102.081543,1042.574341 2102.078613,1036.979492 
	C2101.983154,854.436646 2101.979980,671.893860 2102.090088,489.351105 
	C2102.093506,483.435852 2103.426270,477.521393 2104.139648,471.606567 
z"/>
<path fill="#8DDBE6" opacity="1.000000" stroke="none" 
	d="
M2103.908691,470.904419 
	C2103.426270,477.521393 2102.093506,483.435852 2102.090088,489.351105 
	C2101.979980,671.893860 2101.983154,854.436646 2102.078613,1036.979492 
	C2102.081543,1042.574341 2103.249268,1048.168823 2103.942139,1054.562744 
	C2088.911865,1057.466797 2073.867676,1060.659424 2058.702148,1061.411987 
	C2037.801025,1062.448975 2016.808472,1061.643188 1994.933105,1060.552734 
	C1994.007568,861.633789 1994.007446,663.788757 1993.982422,465.943695 
	C1993.981689,460.286102 1993.716797,454.628540 1993.757080,448.795715 
	C1993.938843,448.620453 1994.001831,448.119263 1994.001831,448.119263 
	C2024.777466,451.163330 2055.278809,455.832458 2085.161621,463.959991 
	C2091.435547,465.666351 2097.510986,468.102448 2103.908691,470.904419 
z"/>
<path fill="#8CDFDF" opacity="1.000000" stroke="none" 
	d="
M1993.575195,448.970947 
	C1993.716797,454.628540 1993.981689,460.286102 1993.982422,465.943695 
	C1994.007446,663.788757 1994.007568,861.633789 1994.013184,1060.368896 
	C1972.520264,1061.403687 1951.025757,1061.592896 1929.530884,1061.678101 
	C1914.972412,1061.735718 1900.413452,1061.647217 1884.932861,1060.550537 
	C1884.006836,964.925171 1884.002686,870.373596 1883.998535,775.821960 
	C1896.860962,775.492737 1909.723389,775.163574 1923.218750,774.818115 
	C1923.218750,760.574219 1923.218750,746.832520 1923.218750,731.874084 
	C1914.135620,731.760437 1904.992065,731.645996 1894.930420,730.455688 
	C1894.008301,634.918396 1894.004150,540.456848 1894.000000,445.995361 
	C1914.714233,445.953094 1935.428345,445.910797 1957.601318,446.139893 
	C1961.367188,446.312622 1963.674072,446.213989 1965.981079,446.115356 
	C1973.428101,446.688019 1980.875122,447.260681 1989.560791,448.120544 
	C1991.724731,448.595490 1992.649902,448.783234 1993.575195,448.970947 
z"/>
<path fill="#86F3BB" opacity="1.000000" stroke="none" 
	d="
M1395.928955,799.803040 
	C1412.096924,788.495605 1430.356201,782.046936 1449.454834,778.447083 
	C1461.687500,776.141235 1474.321289,775.963196 1487.436523,776.132935 
	C1488.065186,781.763672 1488.004150,786.092773 1488.004150,790.421936 
	C1487.999756,991.576599 1488.000610,1192.731323 1488.000854,1393.885986 
	C1460.015869,1396.091797 1432.791870,1393.623413 1407.293945,1380.671875 
	C1403.774170,1378.884033 1400.338623,1376.930786 1396.437256,1373.567871 
	C1396.006958,1348.777588 1396.003296,1325.473511 1396.000000,1302.169556 
	C1395.976318,1134.714111 1395.952637,967.258545 1395.928955,799.803040 
z"/>
<path fill="#87F0C1" opacity="1.000000" stroke="none" 
	d="
M1488.922119,1394.070557 
	C1488.000610,1192.731323 1487.999756,991.576599 1488.004150,790.421936 
	C1488.004150,786.092773 1488.065186,781.763672 1488.137207,776.465088 
	C1514.176758,775.443298 1540.177002,775.390869 1567.088623,776.526733 
	C1568.000244,983.105286 1568.000488,1188.495483 1568.000610,1393.885742 
	C1541.948242,1394.008911 1515.895874,1394.131958 1488.922119,1394.070557 
z"/>
<path fill="#84F6B4" opacity="1.000000" stroke="none" 
	d="
M1395.239014,799.923462 
	C1395.952637,967.258545 1395.976318,1134.714111 1396.000000,1302.169556 
	C1396.003296,1325.473511 1396.006958,1348.777588 1396.013794,1373.015625 
	C1385.949097,1366.466064 1375.049683,1359.867188 1365.967163,1351.334351 
	C1337.656128,1324.736572 1320.513672,1291.122803 1308.230347,1254.820190 
	C1295.589844,1217.462036 1289.551270,1178.797363 1286.355713,1138.437012 
	C1286.297363,1136.176392 1286.084961,1135.118530 1285.872559,1134.060669 
	C1283.353516,1097.826172 1283.418457,1061.611450 1285.963013,1025.363770 
	C1289.260620,978.389832 1298.569946,932.847656 1318.116211,889.825378 
	C1334.983154,852.700195 1359.129028,821.505310 1395.239014,799.923462 
z"/>
<path fill="#FA7695" opacity="1.000000" stroke="none" 
	d="
M1704.005737,1675.749512 
	C1664.275146,1656.968140 1633.172363,1629.765381 1619.413818,1586.603394 
	C1616.131836,1576.307373 1614.361816,1565.077637 1614.326782,1554.269409 
	C1614.027588,1461.716553 1614.299316,1369.161987 1614.363525,1276.607910 
	C1614.370239,1266.973511 1612.820923,1257.135132 1614.273071,1247.743896 
	C1618.130493,1222.796997 1623.242920,1198.097290 1636.715942,1176.014771 
	C1652.675293,1149.857178 1675.007568,1131.168823 1703.311646,1119.290527 
	C1704.004395,1305.345703 1704.005127,1490.547607 1704.005737,1675.749512 
z"/>
<path fill="#FA7F8E" opacity="1.000000" stroke="none" 
	d="
M1704.538574,1676.222656 
	C1704.005127,1490.547607 1704.004395,1305.345703 1704.005005,1119.226562 
	C1722.279419,1109.441528 1741.488281,1103.906372 1761.729004,1101.949463 
	C1765.285400,1101.605469 1768.798462,1100.812256 1773.166016,1101.264160 
	C1774.000244,1301.531250 1774.000122,1500.760620 1774.000000,1699.989990 
	C1749.862549,1695.661621 1727.095703,1687.277344 1704.538574,1676.222656 
z"/>
<path fill="#FB957C" opacity="1.000000" stroke="none" 
	d="
M1963.982544,1714.903320 
	C1941.267700,1715.112305 1918.552856,1715.321411 1894.924561,1714.417236 
	C1894.007568,1508.893799 1894.003906,1304.483643 1894.000244,1100.073486 
	C1915.388184,1099.946045 1936.776245,1099.818726 1959.083740,1100.815918 
	C1960.003662,1196.448975 1960.004150,1290.957397 1960.004517,1385.465942 
	C1948.606567,1385.641968 1937.208618,1385.817993 1924.360962,1386.096924 
	C1922.677612,1386.793579 1922.444092,1387.387451 1922.210449,1387.981323 
	C1922.210571,1401.505493 1922.210571,1415.029663 1922.210571,1429.773315 
	C1935.796509,1429.773315 1948.977173,1429.773315 1963.078857,1430.884521 
	C1963.994263,1526.298340 1963.988403,1620.600952 1963.982544,1714.903320 
z"/>
<path fill="#FDCB52" opacity="1.000000" stroke="none" 
	d="
M2348.016846,766.784119 
	C2368.260498,766.287170 2388.558838,764.735535 2409.256348,771.142334 
	C2410.002686,970.079407 2410.000488,1167.789917 2410.007324,1365.500488 
	C2410.007568,1369.826660 2410.113525,1374.152832 2410.170410,1378.479004 
	C2394.544434,1384.352539 2378.285156,1386.225098 2361.718750,1386.114014 
	C2357.760742,1386.087524 2353.803711,1385.935547 2348.926758,1384.752319 
	C2348.010498,1178.036987 2348.013672,972.410583 2348.016846,766.784119 
z"/>
<path fill="#FB8E82" opacity="1.000000" stroke="none" 
	d="
M1893.079834,1099.882812 
	C1894.003906,1304.483643 1894.007568,1508.893799 1894.015625,1714.180420 
	C1878.570068,1714.135986 1863.119995,1713.214844 1846.475830,1712.066284 
	C1844.193726,1711.916504 1843.105469,1711.994141 1842.017334,1712.071899 
	C1839.231079,1712.028198 1836.444702,1711.984619 1832.829346,1710.887939 
	C1832.000122,1506.580933 1832.000122,1303.327271 1832.000122,1100.073486 
	C1852.053223,1099.946411 1872.106201,1099.819336 1893.079834,1099.882812 
z"/>
<path fill="#FDD24C" opacity="1.000000" stroke="none" 
	d="
M2410.949707,1378.452148 
	C2410.113525,1374.152832 2410.007568,1369.826660 2410.007324,1365.500488 
	C2410.000488,1167.789917 2410.002686,970.079407 2410.002686,771.467957 
	C2435.482422,776.146301 2457.006836,789.034302 2475.862061,807.537842 
	C2471.371338,814.569580 2472.003906,821.338623 2472.003662,827.979065 
	C2471.998779,981.927612 2471.938232,1135.876221 2472.083496,1289.824585 
	C2472.100342,1307.755493 2473.262207,1325.685181 2473.893311,1343.615479 
	C2456.051025,1360.360596 2434.995605,1371.367432 2410.949707,1378.452148 
z"/>
<path fill="#88ECC8" opacity="1.000000" stroke="none" 
	d="
M1568.831909,1394.052246 
	C1568.000488,1188.495483 1568.000244,983.105286 1567.999634,776.765747 
	C1579.224976,775.620911 1590.450195,775.291077 1601.676392,775.258789 
	C1623.176147,775.197021 1644.676392,775.304382 1667.088135,776.530090 
	C1667.999878,871.259949 1667.963135,964.801331 1668.087036,1058.342529 
	C1668.094971,1064.259277 1669.353760,1070.174561 1670.030640,1076.090332 
	C1669.245850,1076.673096 1668.535400,1077.419067 1667.665771,1077.815186 
	C1635.192627,1092.602295 1612.241943,1116.807251 1595.073242,1147.860962 
	C1586.129028,1164.038940 1581.341797,1181.292603 1576.456665,1198.603638 
	C1572.312744,1213.287720 1573.430298,1228.733154 1573.417969,1243.908569 
	C1573.380005,1290.501099 1573.404785,1337.093506 1573.395508,1383.686035 
	C1573.394897,1386.345947 1573.643555,1389.077637 1573.098389,1391.631348 
	C1572.872559,1392.690063 1570.862061,1393.367798 1568.831909,1394.052246 
z"/>
<path fill="#FDC457" opacity="1.000000" stroke="none" 
	d="
M2347.095703,766.594971 
	C2348.013672,972.410583 2348.010498,1178.036987 2348.008301,1384.566650 
	C2329.289795,1385.592163 2310.570312,1385.714355 2290.929199,1384.750000 
	C2290.010742,1178.036987 2290.013916,972.410522 2290.017090,766.783997 
	C2308.736328,766.657959 2327.455322,766.531921 2347.095703,766.594971 
z"/>
<path fill="#FDDA45" opacity="1.000000" stroke="none" 
	d="
M2474.509766,1343.386475 
	C2473.262207,1325.685181 2472.100342,1307.755493 2472.083496,1289.824585 
	C2471.938232,1135.876221 2471.998779,981.927612 2472.003662,827.979065 
	C2472.003906,821.338623 2471.371338,814.569580 2476.178711,808.145691 
	C2483.375977,814.515625 2490.625244,820.958435 2496.486572,828.482605 
	C2513.323242,850.095703 2525.238281,874.184814 2534.569824,900.112244 
	C2542.920166,923.313538 2548.295898,946.984070 2552.825928,970.975403 
	C2554.706787,980.937927 2554.913086,991.209717 2556.046143,1001.322266 
	C2557.220459,1011.798584 2558.595459,1022.252380 2559.551270,1033.858887 
	C2559.441406,1035.832031 2559.662354,1036.662231 2559.883301,1037.492432 
	C2562.944092,1076.494873 2562.255371,1115.516846 2557.439697,1154.254761 
	C2553.612549,1185.038574 2548.697266,1215.779175 2537.896240,1245.203857 
	C2524.193848,1282.532715 2505.532959,1316.581787 2474.509766,1343.386475 
z"/>
<path fill="#FB8788" opacity="1.000000" stroke="none" 
	d="
M1831.079590,1099.883301 
	C1832.000122,1303.327271 1832.000122,1506.580933 1832.000977,1710.750732 
	C1813.010010,1708.535645 1793.968506,1705.663452 1774.657349,1700.382080 
	C1774.000122,1500.760620 1774.000244,1301.531250 1773.999512,1101.396240 
	C1792.718750,1100.224609 1811.438843,1099.958862 1831.079590,1099.883301 
z"/>
<path fill="#89E8CF" opacity="1.000000" stroke="none" 
	d="
M1670.785645,1076.044434 
	C1669.353760,1070.174561 1668.094971,1064.259277 1668.087036,1058.342529 
	C1667.963135,964.801331 1667.999878,871.259949 1667.999023,776.769409 
	C1675.590942,775.624023 1683.183350,775.269409 1690.776245,775.259521 
	C1719.243286,775.222229 1747.710205,775.297607 1777.088623,776.521362 
	C1777.998779,872.226501 1777.997681,966.740906 1777.996704,1061.255371 
	C1768.031128,1061.408447 1758.066162,1061.646484 1748.099976,1061.697998 
	C1721.708374,1061.834229 1696.121094,1066.202881 1670.785645,1076.044434 
z"/>
<path fill="#8AE4D7" opacity="1.000000" stroke="none" 
	d="
M1778.918091,1061.439331 
	C1777.997681,966.740906 1777.998779,872.226501 1777.999023,776.762451 
	C1787.243652,775.618164 1796.488647,775.274231 1805.734253,775.257446 
	C1831.215454,775.211121 1856.696777,775.301758 1883.088379,775.580078 
	C1884.002686,870.373596 1884.006836,964.925171 1884.012939,1060.366577 
	C1860.868774,1061.401489 1837.723022,1061.577148 1814.576904,1061.679077 
	C1802.998047,1061.729980 1791.418579,1061.646240 1778.918091,1061.439331 
z"/>
<path fill="#8AE3D8" opacity="1.000000" stroke="none" 
	d="
M1893.080078,445.803040 
	C1894.004150,540.456848 1894.008301,634.918396 1894.015381,730.262512 
	C1883.761108,731.300049 1873.504028,731.577332 1863.246826,731.587463 
	C1829.451172,731.620911 1795.655640,731.557739 1760.938965,730.458740 
	C1759.971436,704.124512 1759.925049,678.863098 1760.433594,653.147705 
	C1787.719360,645.351501 1801.414062,623.949341 1802.270874,605.634094 
	C1802.698242,596.499817 1800.693848,587.251709 1800.525513,577.752747 
	C1805.360352,574.561401 1803.922363,570.202087 1803.932861,566.414490 
	C1804.038452,528.455688 1804.001343,490.496429 1804.004395,452.537292 
	C1808.811035,451.773315 1813.617798,451.009369 1819.592407,450.530945 
	C1821.842041,450.531494 1822.923706,450.246552 1824.005371,449.961609 
	C1828.811035,449.384216 1833.616821,448.806854 1839.586914,448.538818 
	C1841.829468,448.589081 1842.907593,448.330048 1843.985718,448.070984 
	C1860.043823,447.250885 1876.102051,446.430817 1893.080078,445.803040 
z"/>
<path fill="#FDBD5C" opacity="1.000000" stroke="none" 
	d="
M2289.131836,766.595154 
	C2290.013916,972.410522 2290.010742,1178.036987 2290.008545,1384.566895 
	C2269.956787,1385.592773 2249.904053,1385.715332 2228.929688,1384.751831 
	C2228.005371,1277.751953 2228.037598,1171.838135 2227.902344,1065.924438 
	C2227.895264,1060.382690 2226.465332,1054.842896 2225.697998,1049.302124 
	C2239.961426,1031.953491 2251.755615,1013.155945 2259.141113,991.818726 
	C2267.346924,968.112183 2272.021973,943.751526 2272.055420,918.610229 
	C2272.117676,871.971619 2272.076416,825.332825 2272.078369,778.694153 
	C2272.078369,775.067566 2272.078369,771.440918 2272.078369,766.406311 
	C2277.880371,766.406311 2283.063232,766.406311 2289.131836,766.595154 
z"/>
<path fill="#88E9CB" opacity="1.000000" stroke="none" 
	d="
M1759.878662,653.601746 
	C1759.925049,678.863098 1759.971436,704.124512 1760.020752,730.268921 
	C1753.726074,731.307190 1747.428833,731.590271 1741.131226,731.596741 
	C1702.928467,731.635986 1664.725708,731.612183 1626.522949,731.609497 
	C1622.920776,731.609253 1619.318604,731.609436 1614.264160,731.609436 
	C1614.186157,682.533020 1614.109253,634.184143 1614.395508,584.454529 
	C1614.542114,581.393433 1614.325562,579.713074 1614.109131,578.032654 
	C1614.761353,558.600586 1622.593750,541.955017 1634.234009,526.882507 
	C1645.386719,512.441223 1659.164917,500.771027 1675.136597,492.223358 
	C1689.170532,484.712891 1704.029785,478.744293 1719.270386,473.032410 
	C1720.009033,499.226532 1720.001709,524.482910 1719.506226,550.242676 
	C1715.228638,553.782104 1711.074585,556.462036 1707.706665,559.909851 
	C1677.957031,590.364624 1691.917969,641.590271 1733.173828,652.129028 
	C1741.647949,654.293762 1750.955322,653.195862 1759.878662,653.601746 
z"/>
<path fill="#FC9E75" opacity="1.000000" stroke="none" 
	d="
M1964.786743,1715.086426 
	C1963.988403,1620.600952 1963.994263,1526.298340 1964.000610,1431.067505 
	C1992.050781,1430.016846 2020.100342,1429.894409 2049.014648,1430.786621 
	C2049.251709,1437.731445 2048.149414,1443.656494 2048.081787,1449.593140 
	C2047.854736,1469.576416 2048.122559,1489.565063 2047.927856,1509.549072 
	C2047.858398,1516.688354 2048.782227,1523.474243 2051.802490,1530.585693 
	C2048.994873,1537.580688 2045.918945,1543.739868 2043.804565,1550.213257 
	C2040.067383,1561.655884 2043.131226,1572.865967 2045.556396,1584.612793 
	C2044.065674,1593.056396 2042.246338,1600.868408 2042.142212,1608.703247 
	C2041.776001,1636.201294 2041.891846,1663.708008 2042.090454,1691.209595 
	C2042.130615,1696.771484 2043.330811,1702.324951 2043.996094,1707.882324 
	C2035.176025,1709.169312 2026.356079,1710.456299 2016.360229,1711.378418 
	C2014.151611,1711.292847 2013.118896,1711.572021 2012.086060,1711.851074 
	C2005.895508,1712.493530 1999.704956,1713.135986 1992.248657,1713.345947 
	C1989.359985,1713.229248 1987.736938,1713.545044 1986.114014,1713.860840 
	C1979.272949,1714.330322 1972.432007,1714.799805 1964.786743,1715.086426 
z"/>
<path fill="#FCB563" opacity="1.000000" stroke="none" 
	d="
M2225.088135,1049.613892 
	C2226.465332,1054.842896 2227.895264,1060.382690 2227.902344,1065.924438 
	C2228.037598,1171.838135 2228.005371,1277.751953 2228.008789,1384.569092 
	C2206.623291,1385.593506 2185.236572,1385.714355 2162.928223,1384.749390 
	C2162.001953,1285.769531 2161.997803,1187.875488 2161.993896,1089.981445 
	C2168.069336,1087.324219 2174.201904,1084.789185 2180.209473,1081.986572 
	C2197.014404,1074.146973 2211.653076,1063.279297 2225.088135,1049.613892 
z"/>
<path fill="#FBB364" opacity="1.000000" stroke="none" 
	d="
M2137.991455,1430.135254 
	C2168.590576,1430.135254 2199.189941,1430.135254 2231.032715,1430.135254 
	C2231.032715,1434.037231 2231.018555,1437.583740 2231.034912,1441.129883 
	C2231.248535,1487.122437 2231.596436,1533.114746 2231.623291,1579.107422 
	C2231.634766,1599.174316 2224.246338,1616.824707 2212.271973,1632.648560 
	C2197.014404,1652.810303 2176.749023,1666.604004 2154.321045,1677.490967 
	C2147.587158,1680.759521 2140.533936,1683.369629 2132.843262,1685.369995 
	C2132.039062,1664.292725 2132.150635,1644.125366 2131.908447,1623.962280 
	C2131.845703,1618.742798 2130.673340,1613.536743 2130.428711,1607.786499 
	C2149.437988,1592.110229 2156.986084,1572.956177 2151.997070,1549.214966 
	C2149.446289,1537.076172 2141.946777,1527.952759 2134.579102,1518.573486 
	C2136.209229,1513.877808 2137.830566,1509.801636 2137.869629,1505.710327 
	C2138.108887,1480.520508 2137.990723,1455.327271 2137.991455,1430.135254 
z"/>
<path fill="#FC9E75" opacity="1.000000" stroke="none" 
	d="
M1960.925537,1385.648438 
	C1960.004150,1290.957397 1960.003662,1196.448975 1960.004395,1101.008057 
	C1982.723755,1099.947388 2005.442261,1099.819336 2029.080444,1100.815552 
	C2030.000610,1196.449463 2030.000854,1290.958984 2030.001099,1385.468506 
	C2007.282959,1385.589355 1984.564819,1385.710205 1960.925537,1385.648438 
z"/>
<path fill="#FCA66F" opacity="1.000000" stroke="none" 
	d="
M2030.922607,1385.650635 
	C2030.000854,1290.958984 2030.000610,1196.449463 2030.000732,1101.007324 
	C2052.720459,1099.932373 2075.439453,1099.789917 2099.079346,1100.771973 
	C2100.000000,1196.421021 2099.999756,1290.945435 2099.999512,1385.469849 
	C2077.281006,1385.590820 2054.562744,1385.711914 2030.922607,1385.650635 
z"/>
<path fill="#FCAE69" opacity="1.000000" stroke="none" 
	d="
M2100.921143,1385.652588 
	C2099.999756,1290.945435 2100.000000,1196.421021 2100.000000,1100.960938 
	C2120.376953,1098.100464 2140.792480,1096.408569 2161.204590,1089.970459 
	C2161.997803,1187.875488 2162.001953,1285.769531 2162.007324,1384.566895 
	C2141.953125,1385.591797 2121.897949,1385.713501 2100.921143,1385.652588 
z"/>
<path fill="#FCA66F" opacity="1.000000" stroke="none" 
	d="
M2130.010742,1608.324463 
	C2130.673340,1613.536743 2131.845703,1618.742798 2131.908447,1623.962280 
	C2132.150635,1644.125366 2132.039062,1664.292725 2132.083496,1685.420654 
	C2112.623291,1695.265015 2091.802979,1699.532593 2071.026611,1703.870117 
	C2062.664551,1705.615723 2054.163574,1706.696533 2044.860962,1707.981201 
	C2043.330811,1702.324951 2042.130615,1696.771484 2042.090454,1691.209595 
	C2041.891846,1663.708008 2041.776001,1636.201294 2042.142212,1608.703247 
	C2042.246338,1600.868408 2044.065674,1593.056396 2046.051025,1585.078491 
	C2055.636230,1602.864624 2069.726807,1613.767578 2089.317627,1617.279541 
	C2104.052979,1619.921265 2117.371826,1615.521240 2130.010742,1608.324463 
z"/>
<path fill="#89E8CF" opacity="1.000000" stroke="none" 
	d="
M1719.994385,549.739258 
	C1720.001709,524.482910 1720.009033,499.226532 1720.023193,473.039856 
	C1739.322876,463.949707 1759.757812,460.025299 1780.155396,456.008972 
	C1787.516968,454.559448 1794.961060,453.529388 1803.186035,452.422607 
	C1804.001343,490.496429 1804.038452,528.455688 1803.932861,566.414490 
	C1803.922363,570.202087 1805.360352,574.561401 1800.017456,577.304932 
	C1791.254150,560.285706 1778.581909,549.235718 1760.723022,544.703918 
	C1746.644165,541.131348 1733.031738,543.685974 1719.994385,549.739258 
z"/>
<path fill="#FCA66F" opacity="1.000000" stroke="none" 
	d="
M2137.070801,1429.950928 
	C2137.990723,1455.327271 2138.108887,1480.520508 2137.869629,1505.710327 
	C2137.830566,1509.801636 2136.209229,1513.877808 2133.989258,1518.341064 
	C2108.919678,1500.237061 2074.578613,1501.912842 2051.967041,1529.891602 
	C2048.782227,1523.474243 2047.858398,1516.688354 2047.927856,1509.549072 
	C2048.122559,1489.565063 2047.854736,1469.576416 2048.081787,1449.593140 
	C2048.149414,1443.656494 2049.251709,1437.731445 2049.936035,1430.969482 
	C2078.711426,1430.014160 2107.430908,1429.890381 2137.070801,1429.950928 
z"/>
<path fill="#457063" opacity="1.000000" stroke="none" 
	d="
M1965.468384,445.816772 
	C1963.674072,446.213989 1961.367188,446.312622 1958.539917,446.141541 
	C1960.331665,445.753967 1962.643677,445.636047 1965.468384,445.816772 
z"/>
<path fill="#67AA9C" opacity="1.000000" stroke="none" 
	d="
M1613.874390,578.490356 
	C1614.325562,579.713074 1614.542114,581.393433 1614.447510,583.515869 
	C1613.970947,582.287903 1613.805420,580.617981 1613.874390,578.490356 
z"/>
<path fill="#D7955A" opacity="1.000000" stroke="none" 
	d="
M1986.569702,1714.042725 
	C1987.736938,1713.545044 1989.359985,1713.229248 1991.401611,1713.253906 
	C1990.222046,1713.804321 1988.623779,1714.014404 1986.569702,1714.042725 
z"/>
<path fill="#D7955A" opacity="1.000000" stroke="none" 
	d="
M2560.082275,1037.234619 
	C2559.662354,1036.662231 2559.441406,1035.832031 2559.484863,1034.769043 
	C2559.926758,1035.349854 2560.104004,1036.163330 2560.082275,1037.234619 
z"/>
<path fill="#67AA9C" opacity="1.000000" stroke="none" 
	d="
M1843.618774,447.863464 
	C1842.907593,448.330048 1841.829468,448.589081 1840.402832,448.568634 
	C1841.120117,448.078064 1842.185913,447.867004 1843.618774,447.863464 
z"/>
<path fill="#457063" opacity="1.000000" stroke="none" 
	d="
M1993.756958,448.795715 
	C1992.649902,448.783234 1991.724731,448.595490 1990.411743,448.138977 
	C1991.128662,447.762207 1992.233398,447.654175 1993.669922,447.832703 
	C1994.001831,448.119263 1993.938843,448.620453 1993.756958,448.795715 
z"/>
<path fill="#457063" opacity="1.000000" stroke="none" 
	d="
M1285.624634,1134.408936 
	C1286.084961,1135.118530 1286.297363,1136.176392 1286.283447,1137.588989 
	C1285.830200,1136.881470 1285.603516,1135.819336 1285.624634,1134.408936 
z"/>
<path fill="#67AA9C" opacity="1.000000" stroke="none" 
	d="
M1823.630127,449.763916 
	C1822.923706,450.246552 1821.842041,450.531494 1820.403809,450.545380 
	C1821.116455,450.038300 1822.185669,449.802277 1823.630127,449.763916 
z"/>
<path fill="#53372E" opacity="1.000000" stroke="none" 
	d="
M1842.342529,1712.386963 
	C1843.105469,1711.994141 1844.193726,1711.916504 1845.625732,1712.085815 
	C1844.868896,1712.455933 1843.768188,1712.578857 1842.342529,1712.386963 
z"/>
<path fill="#D7955A" opacity="1.000000" stroke="none" 
	d="
M2012.444092,1712.028564 
	C2013.118896,1711.572021 2014.151611,1711.292847 2015.517334,1711.307129 
	C2014.834351,1711.802368 2013.818359,1712.004028 2012.444092,1712.028564 
z"/>
<path fill="#111212" opacity="1.000000" stroke="none" 
	d="
M1922.543091,1387.756104 
	C1922.444092,1387.387451 1922.677612,1386.793579 1923.438354,1386.278564 
	C1923.661377,1386.803467 1923.298096,1387.194702 1922.543091,1387.756104 
z"/>
<path fill="#111212" opacity="1.000000" stroke="none" 
	d="
M1719.506226,550.242676 
	C1733.031738,543.685974 1746.644165,541.131348 1760.723022,544.703918 
	C1778.581909,549.235718 1791.254150,560.285706 1799.281372,577.607300 
	C1800.693848,587.251709 1802.698242,596.499817 1802.270874,605.634094 
	C1801.414062,623.949341 1787.719360,645.351501 1760.433594,653.147705 
	C1750.955322,653.195862 1741.647949,654.293762 1733.173828,652.129028 
	C1691.917969,641.590271 1677.957031,590.364624 1707.706665,559.909851 
	C1711.074585,556.462036 1715.228638,553.782104 1719.506226,550.242676 
z"/>
<path fill="#111212" opacity="1.000000" stroke="none" 
	d="
M2051.802490,1530.585693 
	C2074.578613,1501.912842 2108.919678,1500.237061 2133.249512,1518.953491 
	C2141.946777,1527.952759 2149.446289,1537.076172 2151.997070,1549.214966 
	C2156.986084,1572.956177 2149.437988,1592.110229 2130.428711,1607.786499 
	C2117.371826,1615.521240 2104.052979,1619.921265 2089.317627,1617.279541 
	C2069.726807,1613.767578 2055.636230,1602.864624 2046.509033,1584.457275 
	C2043.131226,1572.865967 2040.067383,1561.655884 2043.804565,1550.213257 
	C2045.918945,1543.739868 2048.994873,1537.580688 2051.802490,1530.585693 
z"/>
</svg>